G04 (created by PCBNEW (2013-07-07 BZR 4022)-stable) date 11/09/2014 22:00:22*
%MOIN*%
G04 Gerber Fmt 3.4, Leading zero omitted, Abs format*
%FSLAX34Y34*%
G01*
G70*
G90*
G04 APERTURE LIST*
%ADD10C,0.000787402*%
%ADD11C,0.00393701*%
%ADD12R,0.0177X0.0787*%
%ADD13R,0.0787X0.0177*%
%ADD14R,0.055X0.055*%
%ADD15C,0.055*%
%ADD16R,0.025X0.05*%
%ADD17R,0.035X0.055*%
%ADD18R,0.055X0.035*%
%ADD19R,0.2165X0.0787*%
%ADD20C,0.0787*%
%ADD21R,0.135827X0.0401575*%
%ADD22R,0.0394X0.0394*%
%ADD23R,0.0413X0.0413*%
%ADD24R,0.0472X0.0413*%
%ADD25R,0.0906X0.0197*%
%ADD26R,0.0984X0.0787*%
%ADD27C,0.16*%
%ADD28R,0.04X0.06*%
%ADD29C,0.035*%
%ADD30C,0.0125984*%
%ADD31C,0.01*%
G04 APERTURE END LIST*
G54D10*
G54D11*
X20000Y-36200D02*
X20000Y-16600D01*
X39600Y-36200D02*
X20000Y-36200D01*
X39600Y-16600D02*
X39600Y-36200D01*
X20000Y-16600D02*
X39600Y-16600D01*
G54D12*
X26393Y-28496D03*
X26078Y-28496D03*
X25763Y-28496D03*
X25448Y-28496D03*
X25133Y-28496D03*
X24818Y-28496D03*
X24503Y-28496D03*
X24188Y-28496D03*
X24190Y-24730D03*
X26400Y-24730D03*
X26080Y-24730D03*
X25760Y-24730D03*
X25450Y-24730D03*
X25130Y-24730D03*
X24820Y-24730D03*
X24500Y-24730D03*
G54D13*
X23400Y-27712D03*
X23400Y-27398D03*
X23400Y-27082D03*
X23400Y-26768D03*
X23400Y-26452D03*
X23400Y-26138D03*
X23400Y-25822D03*
X23400Y-25508D03*
X27180Y-27710D03*
X27180Y-27400D03*
X27180Y-27080D03*
X27180Y-26770D03*
X27180Y-26460D03*
X27180Y-26140D03*
X27180Y-25820D03*
X27180Y-25500D03*
G54D14*
X26300Y-17200D03*
G54D15*
X27300Y-17200D03*
X28300Y-17200D03*
X29300Y-17200D03*
X30300Y-17200D03*
X31300Y-17200D03*
X32300Y-17200D03*
X33300Y-17200D03*
X23700Y-33800D03*
X23700Y-35800D03*
X20700Y-33800D03*
X20700Y-35800D03*
X27500Y-33800D03*
X27500Y-35800D03*
X24500Y-33800D03*
X24500Y-35800D03*
X31300Y-33800D03*
X31300Y-35800D03*
X28300Y-33800D03*
X28300Y-35800D03*
X35100Y-33800D03*
X35100Y-35800D03*
X32100Y-33800D03*
X32100Y-35800D03*
X38900Y-33800D03*
X38900Y-35800D03*
X35900Y-33800D03*
X35900Y-35800D03*
G54D14*
X33300Y-18000D03*
G54D15*
X32300Y-18000D03*
X31300Y-18000D03*
X30300Y-18000D03*
X29300Y-18000D03*
X28300Y-18000D03*
X27300Y-18000D03*
X26300Y-18000D03*
G54D14*
X20600Y-23900D03*
G54D15*
X20600Y-24900D03*
X20600Y-25900D03*
X20600Y-26900D03*
X20600Y-27900D03*
X20600Y-28900D03*
G54D14*
X20600Y-18300D03*
G54D15*
X21600Y-18300D03*
X22600Y-18300D03*
G54D14*
X20600Y-21300D03*
G54D15*
X21600Y-21300D03*
X22600Y-21300D03*
G54D14*
X20600Y-20300D03*
G54D15*
X21600Y-20300D03*
X22600Y-20300D03*
G54D14*
X20600Y-19300D03*
G54D15*
X21600Y-19300D03*
X22600Y-19300D03*
G54D14*
X20600Y-17300D03*
G54D15*
X21600Y-17300D03*
X22600Y-17300D03*
G54D16*
X26450Y-21000D03*
X26950Y-21000D03*
X27450Y-21000D03*
X27950Y-21000D03*
X28450Y-21000D03*
X28950Y-21000D03*
X29450Y-21000D03*
X29950Y-21000D03*
X29950Y-18800D03*
X29450Y-18800D03*
X28950Y-18800D03*
X28450Y-18800D03*
X27950Y-18800D03*
X27450Y-18800D03*
X26950Y-18800D03*
X26450Y-18800D03*
G54D17*
X35825Y-31000D03*
X36575Y-31000D03*
X25125Y-30100D03*
X25875Y-30100D03*
X27325Y-30100D03*
X26575Y-30100D03*
G54D18*
X25300Y-23875D03*
X25300Y-23125D03*
X21700Y-27525D03*
X21700Y-28275D03*
G54D19*
X28100Y-31450D03*
X24400Y-31450D03*
G54D14*
X20600Y-22300D03*
G54D15*
X21600Y-22300D03*
X22600Y-22300D03*
X23600Y-22300D03*
G54D17*
X25575Y-19150D03*
X24825Y-19150D03*
G54D20*
X38500Y-25584D03*
X38500Y-24600D03*
X38500Y-23616D03*
G54D21*
X30172Y-24300D03*
X28027Y-24300D03*
X28027Y-22300D03*
X30172Y-22300D03*
X28027Y-23300D03*
X30172Y-23300D03*
G54D18*
X29000Y-28575D03*
X29000Y-27825D03*
X29800Y-28575D03*
X29800Y-27825D03*
X30600Y-28575D03*
X30600Y-27825D03*
G54D22*
X36619Y-28772D03*
X38981Y-30228D03*
X36619Y-30228D03*
X38981Y-28772D03*
X21019Y-34372D03*
X23381Y-35828D03*
X21019Y-35828D03*
X23381Y-34372D03*
X24819Y-34372D03*
X27181Y-35828D03*
X24819Y-35828D03*
X27181Y-34372D03*
X28619Y-34372D03*
X30981Y-35828D03*
X28619Y-35828D03*
X30981Y-34372D03*
X32419Y-34372D03*
X34781Y-35828D03*
X32419Y-35828D03*
X34781Y-34372D03*
X36219Y-34372D03*
X38581Y-35828D03*
X36219Y-35828D03*
X38581Y-34372D03*
G54D14*
X39050Y-22150D03*
G54D15*
X38050Y-22150D03*
G54D23*
X29081Y-25394D03*
G54D24*
X29800Y-25394D03*
G54D23*
X30519Y-25394D03*
X30519Y-27205D03*
G54D24*
X29800Y-27205D03*
G54D23*
X29081Y-27205D03*
G54D18*
X20350Y-34375D03*
X20350Y-35125D03*
X24200Y-34425D03*
X24200Y-35175D03*
X27950Y-34425D03*
X27950Y-35175D03*
X31750Y-34425D03*
X31750Y-35175D03*
X39250Y-34425D03*
X39250Y-35175D03*
G54D25*
X36592Y-19780D03*
X36592Y-19465D03*
X36592Y-19150D03*
X36592Y-18835D03*
X36592Y-18520D03*
G54D26*
X36631Y-20902D03*
X38796Y-20902D03*
X36631Y-17398D03*
X38796Y-17398D03*
G54D27*
X21100Y-32000D03*
X24700Y-17700D03*
X32500Y-32000D03*
G54D28*
X35400Y-21300D03*
X34800Y-21300D03*
X33600Y-21300D03*
X33000Y-21300D03*
G54D29*
X32500Y-21950D03*
X29950Y-21700D03*
X28000Y-21700D03*
X34950Y-29450D03*
X34450Y-23900D03*
X32150Y-30400D03*
X30600Y-30400D03*
X25300Y-29300D03*
X27150Y-28950D03*
X36950Y-20200D03*
X25500Y-27150D03*
X25500Y-26400D03*
X24350Y-23550D03*
X23200Y-24350D03*
X21450Y-24350D03*
X24750Y-25650D03*
X35850Y-23900D03*
X33850Y-22300D03*
X21350Y-27050D03*
X22150Y-27100D03*
X28000Y-20400D03*
X22800Y-29400D03*
X23100Y-18800D03*
X30600Y-29150D03*
X23800Y-28500D03*
X23150Y-30500D03*
X26400Y-27700D03*
X26350Y-26900D03*
X25700Y-20050D03*
X26050Y-21450D03*
X26300Y-19450D03*
X27000Y-22100D03*
X32200Y-29450D03*
X32150Y-27150D03*
X29000Y-20400D03*
X26450Y-26450D03*
X27450Y-21500D03*
X27000Y-20400D03*
X23650Y-24400D03*
X23300Y-24950D03*
X25150Y-19700D03*
X25150Y-21350D03*
X37700Y-25400D03*
X26550Y-22450D03*
X24750Y-22250D03*
X24700Y-23150D03*
X28050Y-25300D03*
X27050Y-25250D03*
X26900Y-22900D03*
X29500Y-23600D03*
X28050Y-25850D03*
X30900Y-23000D03*
X30400Y-18800D03*
X30900Y-19150D03*
X32250Y-26650D03*
X32750Y-29350D03*
X31700Y-28700D03*
X26450Y-25650D03*
X26250Y-23450D03*
X28950Y-19250D03*
X32250Y-26150D03*
X31300Y-19400D03*
X33150Y-29050D03*
X25150Y-26000D03*
X25100Y-22750D03*
X38950Y-18200D03*
X36400Y-21700D03*
X24800Y-29450D03*
X32600Y-24400D03*
X23100Y-23750D03*
X26400Y-29450D03*
X25050Y-27450D03*
X32250Y-19850D03*
X36600Y-28050D03*
X36650Y-26350D03*
X35650Y-19600D03*
X27800Y-19800D03*
X27100Y-19700D03*
X32800Y-18700D03*
G54D30*
X32500Y-21950D02*
X32500Y-21800D01*
X32500Y-21800D02*
X33000Y-21300D01*
G54D31*
X26450Y-21000D02*
X26450Y-21300D01*
X32200Y-21950D02*
X32500Y-21950D01*
X31950Y-21700D02*
X32200Y-21950D01*
X29950Y-21700D02*
X31950Y-21700D01*
X27850Y-21850D02*
X28000Y-21700D01*
X27300Y-21850D02*
X27850Y-21850D01*
X27150Y-21700D02*
X27300Y-21850D01*
X26850Y-21700D02*
X27150Y-21700D01*
X26450Y-21300D02*
X26850Y-21700D01*
X34950Y-24400D02*
X34950Y-29450D01*
X34450Y-23900D02*
X34950Y-24400D01*
G54D30*
X33850Y-22300D02*
X34150Y-22000D01*
X34150Y-22000D02*
X34150Y-21300D01*
X33600Y-21300D02*
X34150Y-21300D01*
X34150Y-21300D02*
X34800Y-21300D01*
X29225Y-30325D02*
X30525Y-30325D01*
X34550Y-31600D02*
X34850Y-31900D01*
X34550Y-30750D02*
X34550Y-31600D01*
X34200Y-30400D02*
X34550Y-30750D01*
X32150Y-30400D02*
X34200Y-30400D01*
X30525Y-30325D02*
X30600Y-30400D01*
X35825Y-29500D02*
X37350Y-29500D01*
X37350Y-29500D02*
X37450Y-29600D01*
X37450Y-29600D02*
X37450Y-31500D01*
X37450Y-31500D02*
X37050Y-31900D01*
X37050Y-31900D02*
X34850Y-31900D01*
X27850Y-28950D02*
X27150Y-28950D01*
X29225Y-30325D02*
X27850Y-28950D01*
X36592Y-19780D02*
X36592Y-19842D01*
X36592Y-19842D02*
X36950Y-20200D01*
G54D31*
X25300Y-29300D02*
X25500Y-29300D01*
X25763Y-29037D02*
X25763Y-28496D01*
X25500Y-29300D02*
X25763Y-29037D01*
G54D30*
X25133Y-29133D02*
X25133Y-28496D01*
X25300Y-29300D02*
X25133Y-29133D01*
X25500Y-27150D02*
X25800Y-27450D01*
X25800Y-28459D02*
X25763Y-28496D01*
X25800Y-27450D02*
X25800Y-28459D01*
G54D31*
X25500Y-26400D02*
X25250Y-26400D01*
G54D30*
X21450Y-24350D02*
X21150Y-24350D01*
X24350Y-23550D02*
X24100Y-23800D01*
X24100Y-23800D02*
X23750Y-23800D01*
X23750Y-23800D02*
X23200Y-24350D01*
G54D31*
X24750Y-26250D02*
X24750Y-25650D01*
X24950Y-26450D02*
X24750Y-26250D01*
X25200Y-26450D02*
X24950Y-26450D01*
X25250Y-26400D02*
X25200Y-26450D01*
G54D30*
X26050Y-25400D02*
X26050Y-25500D01*
X26080Y-25400D02*
X26080Y-24730D01*
X26080Y-25400D02*
X26050Y-25400D01*
X26050Y-25500D02*
X25500Y-26050D01*
X25500Y-26050D02*
X25500Y-26400D01*
X35825Y-31000D02*
X35825Y-29500D01*
G54D31*
X35825Y-29500D02*
X35825Y-23925D01*
X35825Y-23925D02*
X35850Y-23900D01*
G54D30*
X30172Y-22300D02*
X33850Y-22300D01*
G54D31*
X20600Y-25900D02*
X20750Y-25900D01*
X20750Y-25900D02*
X21150Y-25500D01*
X21150Y-25500D02*
X21150Y-24350D01*
X21150Y-22750D02*
X21600Y-22300D01*
X21150Y-24350D02*
X21150Y-22750D01*
X21600Y-21300D02*
X21600Y-22300D01*
X21600Y-20300D02*
X21600Y-21300D01*
X21600Y-19300D02*
X21600Y-20300D01*
X21600Y-18300D02*
X21600Y-19300D01*
X21600Y-17300D02*
X21600Y-18300D01*
X23400Y-27082D02*
X22168Y-27082D01*
X21200Y-26900D02*
X20600Y-26900D01*
X21350Y-27050D02*
X21200Y-26900D01*
X22168Y-27082D02*
X22150Y-27100D01*
X20600Y-27900D02*
X22200Y-27900D01*
X23398Y-27400D02*
X23400Y-27398D01*
X22700Y-27400D02*
X23398Y-27400D01*
X22200Y-27900D02*
X22700Y-27400D01*
X27180Y-26140D02*
X27590Y-26140D01*
X28400Y-26150D02*
X28400Y-26000D01*
X28300Y-26250D02*
X28400Y-26150D01*
X27700Y-26250D02*
X28300Y-26250D01*
X27590Y-26140D02*
X27700Y-26250D01*
X28875Y-21675D02*
X28875Y-24675D01*
X28875Y-24675D02*
X28850Y-24700D01*
X28450Y-21000D02*
X28450Y-21250D01*
X28400Y-24950D02*
X28400Y-26000D01*
X28600Y-24750D02*
X28400Y-24950D01*
X28800Y-24750D02*
X28600Y-24750D01*
X28850Y-24700D02*
X28800Y-24750D01*
X28450Y-21250D02*
X28875Y-21675D01*
X27950Y-20450D02*
X27950Y-21000D01*
X28000Y-20400D02*
X27950Y-20450D01*
X28619Y-34372D02*
X30981Y-34372D01*
X23400Y-27712D02*
X23400Y-28800D01*
X23400Y-28800D02*
X22800Y-29400D01*
X27950Y-34425D02*
X27950Y-34150D01*
X27950Y-34150D02*
X28300Y-33800D01*
X30981Y-34372D02*
X30981Y-34119D01*
X30981Y-34119D02*
X31300Y-33800D01*
X28619Y-34372D02*
X28619Y-34119D01*
X28619Y-34119D02*
X28300Y-33800D01*
X23150Y-17850D02*
X22600Y-17300D01*
X23150Y-18750D02*
X23150Y-17850D01*
X23100Y-18800D02*
X23150Y-18750D01*
X30600Y-29150D02*
X30600Y-28575D01*
X23804Y-28496D02*
X24188Y-28496D01*
X23800Y-28500D02*
X23804Y-28496D01*
X32419Y-34372D02*
X34781Y-34372D01*
X24500Y-29150D02*
X23150Y-30500D01*
X24500Y-29100D02*
X24500Y-29150D01*
X24503Y-29097D02*
X24500Y-29100D01*
X24503Y-28496D02*
X24503Y-29097D01*
X31750Y-34425D02*
X31750Y-34150D01*
X31750Y-34150D02*
X32100Y-33800D01*
X34781Y-34372D02*
X34781Y-34119D01*
X34781Y-34119D02*
X35100Y-33800D01*
X32419Y-34372D02*
X32419Y-34119D01*
X32419Y-34119D02*
X32100Y-33800D01*
X27180Y-27710D02*
X28190Y-27710D01*
X28250Y-27770D02*
X28250Y-28780D01*
X28190Y-27710D02*
X28250Y-27770D01*
X27180Y-27710D02*
X26410Y-27710D01*
X26410Y-27710D02*
X26400Y-27700D01*
X29800Y-28575D02*
X29800Y-28850D01*
X28520Y-29050D02*
X28250Y-28780D01*
X29600Y-29050D02*
X28520Y-29050D01*
X29800Y-28850D02*
X29600Y-29050D01*
X26700Y-27400D02*
X26350Y-26900D01*
X27180Y-27400D02*
X26700Y-27400D01*
X27650Y-27400D02*
X28350Y-27400D01*
X28500Y-27550D02*
X28500Y-28250D01*
X28350Y-27400D02*
X28500Y-27550D01*
X29000Y-28575D02*
X28825Y-28575D01*
X28825Y-28575D02*
X28500Y-28250D01*
X27650Y-27400D02*
X27180Y-27400D01*
X27450Y-18800D02*
X27450Y-19850D01*
X27250Y-20050D02*
X25700Y-20050D01*
X27450Y-19850D02*
X27250Y-20050D01*
X23350Y-20050D02*
X22600Y-19300D01*
X25700Y-20050D02*
X23350Y-20050D01*
X27000Y-22100D02*
X26700Y-22100D01*
X26950Y-19200D02*
X26950Y-18800D01*
X26700Y-19450D02*
X26950Y-19200D01*
X26300Y-19450D02*
X26700Y-19450D01*
X26700Y-22100D02*
X26050Y-21450D01*
X32150Y-27150D02*
X32150Y-27200D01*
X32250Y-27300D02*
X32250Y-28250D01*
X32150Y-27200D02*
X32250Y-27300D01*
X32250Y-29400D02*
X32250Y-28250D01*
X32200Y-29450D02*
X32250Y-29400D01*
X31300Y-30650D02*
X31450Y-30800D01*
X35900Y-32850D02*
X35900Y-33800D01*
X35500Y-32450D02*
X35900Y-32850D01*
X34750Y-32450D02*
X35500Y-32450D01*
X34050Y-31750D02*
X34750Y-32450D01*
X34050Y-31050D02*
X34050Y-31750D01*
X33800Y-30800D02*
X34050Y-31050D01*
X31450Y-30800D02*
X33800Y-30800D01*
X28650Y-26750D02*
X28600Y-26800D01*
X28600Y-26800D02*
X27950Y-26800D01*
X27950Y-26800D02*
X27670Y-27080D01*
X28650Y-26750D02*
X28750Y-26650D01*
X27180Y-27080D02*
X27670Y-27080D01*
X31300Y-27000D02*
X31300Y-30650D01*
X30950Y-26650D02*
X31300Y-27000D01*
X28750Y-26650D02*
X30950Y-26650D01*
X39250Y-34425D02*
X39250Y-34150D01*
X39250Y-34150D02*
X38900Y-33800D01*
X38581Y-34372D02*
X38581Y-34119D01*
X38581Y-34119D02*
X38900Y-33800D01*
X36219Y-34372D02*
X36219Y-34119D01*
X36219Y-34119D02*
X35900Y-33800D01*
X27180Y-26770D02*
X27630Y-26770D01*
X27850Y-26550D02*
X28500Y-26550D01*
X27630Y-26770D02*
X27850Y-26550D01*
X29300Y-22000D02*
X29100Y-22200D01*
X29100Y-24800D02*
X28900Y-25000D01*
X29100Y-22200D02*
X29100Y-24800D01*
X29450Y-21000D02*
X29450Y-21850D01*
X28650Y-26400D02*
X28500Y-26550D01*
X28650Y-25050D02*
X28650Y-26400D01*
X28700Y-25000D02*
X28650Y-25050D01*
X28900Y-25000D02*
X28700Y-25000D01*
X29450Y-21850D02*
X29300Y-22000D01*
X28950Y-20450D02*
X28950Y-21000D01*
X29000Y-20400D02*
X28950Y-20450D01*
X27180Y-26460D02*
X26460Y-26460D01*
X26460Y-26460D02*
X26450Y-26450D01*
X27450Y-21500D02*
X27450Y-21000D01*
X27000Y-20400D02*
X26950Y-20450D01*
X26950Y-20450D02*
X26950Y-21000D01*
X23381Y-34372D02*
X21019Y-34372D01*
X23650Y-24400D02*
X23700Y-24400D01*
X23700Y-24400D02*
X23950Y-24150D01*
X24500Y-24250D02*
X24400Y-24150D01*
X24500Y-24250D02*
X24500Y-24730D01*
X24400Y-24150D02*
X23950Y-24150D01*
X20350Y-34375D02*
X20350Y-34150D01*
X20350Y-34150D02*
X20700Y-33800D01*
X21019Y-34372D02*
X21019Y-34119D01*
X21019Y-34119D02*
X20700Y-33800D01*
X23381Y-34372D02*
X23381Y-34119D01*
X23381Y-34119D02*
X23700Y-33800D01*
X24819Y-34372D02*
X27181Y-34372D01*
X24190Y-24730D02*
X23520Y-24730D01*
X23520Y-24730D02*
X23300Y-24950D01*
X24200Y-34425D02*
X24200Y-34100D01*
X24200Y-34100D02*
X24500Y-33800D01*
X24819Y-34372D02*
X24819Y-34119D01*
X24819Y-34119D02*
X24500Y-33800D01*
X27181Y-34372D02*
X27181Y-34119D01*
X27181Y-34119D02*
X27500Y-33800D01*
X22950Y-25250D02*
X22750Y-25050D01*
X22850Y-23400D02*
X23400Y-23400D01*
X22750Y-23500D02*
X22850Y-23400D01*
X22750Y-25050D02*
X22750Y-23500D01*
X23400Y-25508D02*
X23208Y-25508D01*
X23208Y-25508D02*
X22950Y-25250D01*
X23150Y-20850D02*
X22600Y-20300D01*
X23150Y-21150D02*
X23150Y-20850D01*
X23400Y-21400D02*
X23150Y-21150D01*
X23750Y-21400D02*
X23400Y-21400D01*
X24350Y-22000D02*
X23750Y-21400D01*
X24350Y-22700D02*
X24350Y-22000D01*
X23950Y-23100D02*
X24350Y-22700D01*
X23700Y-23100D02*
X23950Y-23100D01*
X23400Y-23400D02*
X23700Y-23100D01*
X22900Y-23100D02*
X22750Y-23100D01*
X22500Y-25150D02*
X22700Y-25350D01*
X22500Y-23350D02*
X22500Y-25150D01*
X22750Y-23100D02*
X22500Y-23350D01*
X22900Y-23100D02*
X23300Y-23100D01*
X23400Y-25822D02*
X22772Y-25822D01*
X22700Y-25750D02*
X22700Y-25350D01*
X22772Y-25822D02*
X22700Y-25750D01*
X23050Y-21750D02*
X22600Y-21300D01*
X23300Y-23100D02*
X23550Y-22850D01*
X23550Y-22850D02*
X23850Y-22850D01*
X23850Y-22850D02*
X24100Y-22600D01*
X24100Y-22600D02*
X24100Y-22100D01*
X24100Y-22100D02*
X23750Y-21750D01*
X23750Y-21750D02*
X23050Y-21750D01*
X22450Y-23050D02*
X22250Y-23250D01*
X22250Y-25250D02*
X22450Y-25450D01*
X22250Y-23250D02*
X22250Y-25250D01*
X22650Y-22850D02*
X23050Y-22850D01*
X22450Y-23050D02*
X22650Y-22850D01*
X23400Y-26138D02*
X22588Y-26138D01*
X22450Y-26000D02*
X22450Y-25450D01*
X22588Y-26138D02*
X22450Y-26000D01*
X23050Y-22850D02*
X23600Y-22300D01*
X22200Y-26250D02*
X22200Y-25600D01*
X21950Y-22950D02*
X22200Y-22700D01*
X21950Y-25350D02*
X21950Y-22950D01*
X22200Y-25600D02*
X21950Y-25350D01*
X22200Y-22700D02*
X22600Y-22300D01*
X22402Y-26452D02*
X23400Y-26452D01*
X22200Y-26250D02*
X22402Y-26452D01*
X25150Y-19700D02*
X25000Y-19700D01*
X24825Y-19525D02*
X24825Y-19150D01*
X25000Y-19700D02*
X24825Y-19525D01*
X25150Y-21350D02*
X25150Y-21800D01*
X25900Y-22550D02*
X25900Y-22750D01*
X25150Y-21800D02*
X25900Y-22550D01*
X25760Y-24730D02*
X25760Y-24240D01*
X25150Y-21350D02*
X25150Y-21350D01*
X25900Y-24100D02*
X25900Y-22750D01*
X25760Y-24240D02*
X25900Y-24100D01*
X24820Y-24730D02*
X24820Y-24120D01*
X38384Y-23500D02*
X38500Y-23616D01*
X37850Y-23500D02*
X38384Y-23500D01*
X37700Y-23650D02*
X37850Y-23500D01*
X37700Y-25400D02*
X37700Y-23650D01*
X25600Y-21500D02*
X26550Y-22450D01*
X25600Y-21150D02*
X25600Y-21500D01*
X25350Y-20900D02*
X25600Y-21150D01*
X24900Y-20900D02*
X25350Y-20900D01*
X24700Y-21100D02*
X24900Y-20900D01*
X24700Y-22200D02*
X24700Y-21100D01*
X24750Y-22250D02*
X24700Y-22200D01*
X24700Y-24000D02*
X24700Y-23150D01*
X24820Y-24120D02*
X24700Y-24000D01*
X27180Y-25500D02*
X27850Y-25500D01*
X27850Y-25500D02*
X28050Y-25300D01*
X28027Y-22300D02*
X27500Y-22300D01*
X27180Y-25380D02*
X27180Y-25500D01*
X27050Y-25250D02*
X27180Y-25380D01*
X27500Y-22300D02*
X26900Y-22900D01*
X27180Y-25820D02*
X28020Y-25820D01*
X29800Y-23300D02*
X30172Y-23300D01*
X29500Y-23600D02*
X29800Y-23300D01*
X28020Y-25820D02*
X28050Y-25850D01*
X30172Y-23300D02*
X30600Y-23300D01*
X30600Y-23300D02*
X30900Y-23000D01*
X30400Y-18800D02*
X29950Y-18800D01*
X32250Y-26650D02*
X32300Y-26650D01*
X32750Y-27100D02*
X32750Y-27850D01*
X32300Y-26650D02*
X32750Y-27100D01*
X32750Y-28400D02*
X32750Y-27850D01*
X32750Y-29350D02*
X32750Y-28400D01*
X30100Y-19300D02*
X30750Y-19300D01*
X30900Y-18600D02*
X30300Y-18000D01*
X30900Y-19150D02*
X30900Y-18600D01*
X30750Y-19300D02*
X30900Y-19150D01*
X29450Y-19050D02*
X29450Y-18800D01*
X29700Y-19300D02*
X29450Y-19050D01*
X30100Y-19300D02*
X29700Y-19300D01*
X26078Y-28496D02*
X26078Y-29072D01*
X25800Y-29425D02*
X25125Y-30100D01*
X25800Y-29350D02*
X25800Y-29425D01*
X26078Y-29072D02*
X25800Y-29350D01*
X24400Y-31450D02*
X24400Y-30825D01*
X24400Y-30825D02*
X25125Y-30100D01*
X28100Y-31450D02*
X28100Y-30875D01*
X28100Y-30875D02*
X27325Y-30100D01*
X26393Y-28496D02*
X26393Y-28793D01*
X27325Y-29725D02*
X27325Y-30100D01*
X26393Y-28793D02*
X27325Y-29725D01*
X35300Y-31500D02*
X34950Y-31150D01*
X31900Y-29950D02*
X31700Y-29750D01*
X34600Y-29950D02*
X31900Y-29950D01*
X34950Y-30300D02*
X34600Y-29950D01*
X34950Y-31150D02*
X34950Y-30300D01*
X36250Y-31500D02*
X36550Y-31500D01*
X36250Y-31500D02*
X35300Y-31500D01*
X31700Y-29750D02*
X31700Y-28700D01*
X36550Y-31500D02*
X36575Y-31475D01*
X36575Y-31475D02*
X36575Y-31000D01*
X28027Y-24300D02*
X26950Y-24300D01*
X26700Y-24550D02*
X26700Y-25200D01*
X26950Y-24300D02*
X26700Y-24550D01*
X25100Y-26768D02*
X25932Y-26768D01*
X26100Y-26600D02*
X26100Y-25800D01*
X25932Y-26768D02*
X26100Y-26600D01*
X26400Y-25600D02*
X26400Y-25500D01*
X26450Y-25650D02*
X26400Y-25600D01*
X26700Y-25200D02*
X26400Y-25500D01*
X25100Y-26768D02*
X23400Y-26768D01*
X26400Y-25500D02*
X26100Y-25800D01*
X36575Y-31000D02*
X36575Y-30272D01*
X36575Y-30272D02*
X36619Y-30228D01*
X21700Y-27525D02*
X21700Y-27000D01*
X21932Y-26768D02*
X23400Y-26768D01*
X21700Y-27000D02*
X21932Y-26768D01*
X28950Y-18800D02*
X28950Y-19250D01*
X26400Y-23600D02*
X26400Y-23900D01*
X26250Y-23450D02*
X26400Y-23600D01*
X26400Y-24730D02*
X26400Y-23900D01*
X27000Y-23300D02*
X28027Y-23300D01*
X26400Y-23900D02*
X27000Y-23300D01*
X32250Y-26150D02*
X32400Y-26150D01*
X33150Y-26900D02*
X33150Y-27800D01*
X32400Y-26150D02*
X33150Y-26900D01*
X31300Y-19425D02*
X31300Y-19400D01*
X33150Y-27800D02*
X33150Y-29050D01*
X30050Y-19600D02*
X31100Y-19600D01*
X31300Y-19425D02*
X31300Y-18000D01*
X31100Y-19600D02*
X31300Y-19400D01*
X29000Y-19600D02*
X28650Y-19600D01*
X28450Y-19400D02*
X28450Y-18800D01*
X28650Y-19600D02*
X28450Y-19400D01*
X30050Y-19600D02*
X29000Y-19600D01*
G54D30*
X24200Y-35175D02*
X24200Y-35500D01*
X24200Y-35500D02*
X24500Y-35800D01*
X27181Y-35828D02*
X27472Y-35828D01*
X27472Y-35828D02*
X27500Y-35800D01*
X36219Y-35828D02*
X38581Y-35828D01*
X32419Y-35828D02*
X35072Y-35828D01*
X35072Y-35828D02*
X35100Y-35800D01*
X28619Y-35828D02*
X31272Y-35828D01*
X31272Y-35828D02*
X31300Y-35800D01*
X24819Y-35828D02*
X27181Y-35828D01*
X21019Y-35828D02*
X23381Y-35828D01*
X38981Y-28772D02*
X36619Y-28772D01*
X25150Y-26000D02*
X25150Y-24750D01*
X25150Y-24750D02*
X25130Y-24730D01*
X36592Y-18520D02*
X37170Y-18520D01*
X37170Y-18520D02*
X37400Y-18750D01*
X37400Y-18750D02*
X38400Y-18750D01*
X38400Y-18750D02*
X38950Y-18200D01*
X37550Y-21700D02*
X37600Y-21700D01*
X37600Y-21700D02*
X38050Y-22150D01*
X37550Y-21700D02*
X36400Y-21700D01*
X24800Y-29450D02*
X24818Y-29432D01*
X24818Y-29432D02*
X24818Y-28496D01*
X25448Y-28496D02*
X25448Y-27848D01*
X25448Y-27848D02*
X25050Y-27450D01*
X30172Y-24300D02*
X32500Y-24300D01*
X32500Y-24300D02*
X32600Y-24400D01*
G54D31*
X29800Y-25394D02*
X29800Y-24672D01*
X29800Y-24672D02*
X30172Y-24300D01*
X29800Y-25394D02*
X29081Y-25394D01*
X30519Y-25394D02*
X29800Y-25394D01*
G54D30*
X23750Y-23400D02*
X23950Y-23400D01*
X23400Y-23750D02*
X23750Y-23400D01*
X23100Y-23750D02*
X23400Y-23750D01*
G54D31*
X23950Y-23400D02*
X24600Y-22750D01*
G54D30*
X24600Y-22750D02*
X25100Y-22750D01*
X26575Y-30100D02*
X26575Y-29625D01*
X26575Y-29625D02*
X26400Y-29450D01*
X25875Y-30100D02*
X26575Y-30100D01*
G54D31*
X25100Y-22750D02*
X25300Y-22950D01*
X25300Y-22950D02*
X25300Y-23125D01*
G54D30*
X24818Y-28496D02*
X24818Y-27682D01*
X24818Y-27682D02*
X25050Y-27450D01*
X29950Y-21000D02*
X31100Y-21000D01*
X31100Y-21000D02*
X32250Y-19850D01*
G54D31*
X20700Y-35800D02*
X20991Y-35800D01*
X20991Y-35800D02*
X21019Y-35828D01*
X33300Y-18000D02*
X33300Y-18800D01*
X33300Y-18800D02*
X32250Y-19850D01*
G54D30*
X36600Y-28050D02*
X36619Y-28050D01*
G54D31*
X36619Y-28772D02*
X36619Y-28050D01*
G54D30*
X36619Y-28050D02*
X36619Y-26381D01*
X36619Y-26381D02*
X36650Y-26350D01*
X38981Y-28772D02*
X38728Y-28772D01*
X38000Y-35247D02*
X38581Y-35828D01*
X38000Y-33750D02*
X38000Y-35247D01*
X39050Y-32700D02*
X38000Y-33750D01*
X39050Y-31200D02*
X39050Y-32700D01*
X38350Y-30500D02*
X39050Y-31200D01*
X38350Y-29150D02*
X38350Y-30500D01*
X38728Y-28772D02*
X38350Y-29150D01*
G54D31*
X36219Y-35828D02*
X35928Y-35828D01*
X35928Y-35828D02*
X35900Y-35800D01*
X35100Y-35800D02*
X35900Y-35800D01*
X31300Y-35800D02*
X32100Y-35800D01*
X27500Y-35800D02*
X28300Y-35800D01*
X23700Y-35800D02*
X24500Y-35800D01*
X20350Y-35125D02*
X20350Y-35450D01*
X20350Y-35450D02*
X20700Y-35800D01*
X27950Y-35175D02*
X27950Y-35450D01*
X27950Y-35450D02*
X28300Y-35800D01*
X31750Y-35175D02*
X31750Y-35450D01*
X31750Y-35450D02*
X32100Y-35800D01*
X39250Y-35175D02*
X39250Y-35450D01*
X39250Y-35450D02*
X38900Y-35800D01*
X38900Y-35800D02*
X38609Y-35800D01*
X38609Y-35800D02*
X38581Y-35828D01*
X34781Y-35828D02*
X35072Y-35828D01*
X35072Y-35828D02*
X35100Y-35800D01*
X32100Y-35800D02*
X32391Y-35800D01*
X32391Y-35800D02*
X32419Y-35828D01*
X30981Y-35828D02*
X31272Y-35828D01*
X31272Y-35828D02*
X31300Y-35800D01*
X28619Y-35828D02*
X28328Y-35828D01*
X28328Y-35828D02*
X28300Y-35800D01*
X24819Y-35828D02*
X24528Y-35828D01*
X24528Y-35828D02*
X24500Y-35800D01*
X23381Y-35828D02*
X23672Y-35828D01*
X23672Y-35828D02*
X23700Y-35800D01*
X20600Y-23900D02*
X20600Y-22300D01*
X20600Y-24900D02*
X20600Y-23900D01*
X20600Y-21300D02*
X20600Y-22300D01*
X20600Y-20300D02*
X20600Y-21300D01*
X20600Y-19300D02*
X20600Y-20300D01*
X20600Y-18300D02*
X20600Y-19300D01*
X20600Y-17300D02*
X20600Y-18300D01*
G54D30*
X35400Y-21300D02*
X35400Y-19850D01*
X35400Y-19850D02*
X35650Y-19600D01*
G54D31*
X29800Y-27205D02*
X29800Y-27825D01*
X29081Y-27205D02*
X29081Y-27744D01*
X29081Y-27744D02*
X29000Y-27825D01*
X30519Y-27205D02*
X30519Y-27744D01*
X30519Y-27744D02*
X30600Y-27825D01*
X25450Y-24730D02*
X25450Y-24025D01*
X25450Y-24025D02*
X25300Y-23875D01*
X25575Y-19150D02*
X25900Y-19150D01*
X32050Y-18700D02*
X32050Y-19350D01*
X31550Y-19850D02*
X30200Y-19850D01*
X32050Y-19350D02*
X31550Y-19850D01*
X25900Y-18400D02*
X25925Y-18375D01*
X25925Y-18375D02*
X26300Y-18000D01*
X30200Y-19850D02*
X27850Y-19850D01*
X27850Y-19850D02*
X27800Y-19800D01*
X27100Y-19700D02*
X27000Y-19800D01*
X27000Y-19800D02*
X26000Y-19800D01*
X26000Y-19800D02*
X25900Y-19700D01*
X25900Y-19700D02*
X25900Y-19150D01*
X25900Y-19150D02*
X25900Y-18850D01*
X25900Y-18850D02*
X25900Y-18400D01*
X32800Y-18700D02*
X32050Y-18700D01*
X21700Y-28275D02*
X21700Y-28500D01*
X21300Y-28900D02*
X20600Y-28900D01*
X21700Y-28500D02*
X21300Y-28900D01*
G54D10*
G36*
X20676Y-24905D02*
X20605Y-24976D01*
X20600Y-24970D01*
X20594Y-24976D01*
X20523Y-24905D01*
X20529Y-24900D01*
X20523Y-24894D01*
X20594Y-24823D01*
X20600Y-24829D01*
X20605Y-24823D01*
X20676Y-24894D01*
X20670Y-24900D01*
X20676Y-24905D01*
X20676Y-24905D01*
G37*
G54D31*
X20676Y-24905D02*
X20605Y-24976D01*
X20600Y-24970D01*
X20594Y-24976D01*
X20523Y-24905D01*
X20529Y-24900D01*
X20523Y-24894D01*
X20594Y-24823D01*
X20600Y-24829D01*
X20605Y-24823D01*
X20676Y-24894D01*
X20670Y-24900D01*
X20676Y-24905D01*
G54D10*
G36*
X20735Y-23374D02*
X20712Y-23375D01*
X20650Y-23437D01*
X20650Y-23850D01*
X20657Y-23850D01*
X20657Y-23950D01*
X20650Y-23950D01*
X20650Y-23957D01*
X20550Y-23957D01*
X20550Y-23950D01*
X20542Y-23950D01*
X20542Y-23850D01*
X20550Y-23850D01*
X20550Y-23437D01*
X20487Y-23375D01*
X20384Y-23374D01*
X20384Y-22825D01*
X20487Y-22825D01*
X20550Y-22762D01*
X20550Y-22350D01*
X20542Y-22350D01*
X20542Y-22250D01*
X20550Y-22250D01*
X20550Y-21837D01*
X20512Y-21800D01*
X20550Y-21762D01*
X20550Y-21350D01*
X20542Y-21350D01*
X20542Y-21250D01*
X20550Y-21250D01*
X20550Y-20837D01*
X20512Y-20800D01*
X20550Y-20762D01*
X20550Y-20350D01*
X20542Y-20350D01*
X20542Y-20250D01*
X20550Y-20250D01*
X20550Y-19837D01*
X20512Y-19800D01*
X20550Y-19762D01*
X20550Y-19350D01*
X20542Y-19350D01*
X20542Y-19250D01*
X20550Y-19250D01*
X20550Y-18837D01*
X20512Y-18800D01*
X20550Y-18762D01*
X20550Y-18350D01*
X20542Y-18350D01*
X20542Y-18250D01*
X20550Y-18250D01*
X20550Y-17837D01*
X20512Y-17800D01*
X20550Y-17762D01*
X20550Y-17350D01*
X20542Y-17350D01*
X20542Y-17250D01*
X20550Y-17250D01*
X20550Y-17242D01*
X20650Y-17242D01*
X20650Y-17250D01*
X20657Y-17250D01*
X20657Y-17350D01*
X20650Y-17350D01*
X20650Y-17762D01*
X20687Y-17800D01*
X20650Y-17837D01*
X20650Y-18250D01*
X20657Y-18250D01*
X20657Y-18350D01*
X20650Y-18350D01*
X20650Y-18762D01*
X20687Y-18800D01*
X20650Y-18837D01*
X20650Y-19250D01*
X20657Y-19250D01*
X20657Y-19350D01*
X20650Y-19350D01*
X20650Y-19762D01*
X20687Y-19800D01*
X20650Y-19837D01*
X20650Y-20250D01*
X20657Y-20250D01*
X20657Y-20350D01*
X20650Y-20350D01*
X20650Y-20762D01*
X20687Y-20800D01*
X20650Y-20837D01*
X20650Y-21250D01*
X20657Y-21250D01*
X20657Y-21350D01*
X20650Y-21350D01*
X20650Y-21762D01*
X20687Y-21800D01*
X20650Y-21837D01*
X20650Y-22250D01*
X20657Y-22250D01*
X20657Y-22350D01*
X20650Y-22350D01*
X20650Y-22762D01*
X20712Y-22825D01*
X20735Y-22825D01*
X20735Y-23374D01*
X20735Y-23374D01*
G37*
G54D31*
X20735Y-23374D02*
X20712Y-23375D01*
X20650Y-23437D01*
X20650Y-23850D01*
X20657Y-23850D01*
X20657Y-23950D01*
X20650Y-23950D01*
X20650Y-23957D01*
X20550Y-23957D01*
X20550Y-23950D01*
X20542Y-23950D01*
X20542Y-23850D01*
X20550Y-23850D01*
X20550Y-23437D01*
X20487Y-23375D01*
X20384Y-23374D01*
X20384Y-22825D01*
X20487Y-22825D01*
X20550Y-22762D01*
X20550Y-22350D01*
X20542Y-22350D01*
X20542Y-22250D01*
X20550Y-22250D01*
X20550Y-21837D01*
X20512Y-21800D01*
X20550Y-21762D01*
X20550Y-21350D01*
X20542Y-21350D01*
X20542Y-21250D01*
X20550Y-21250D01*
X20550Y-20837D01*
X20512Y-20800D01*
X20550Y-20762D01*
X20550Y-20350D01*
X20542Y-20350D01*
X20542Y-20250D01*
X20550Y-20250D01*
X20550Y-19837D01*
X20512Y-19800D01*
X20550Y-19762D01*
X20550Y-19350D01*
X20542Y-19350D01*
X20542Y-19250D01*
X20550Y-19250D01*
X20550Y-18837D01*
X20512Y-18800D01*
X20550Y-18762D01*
X20550Y-18350D01*
X20542Y-18350D01*
X20542Y-18250D01*
X20550Y-18250D01*
X20550Y-17837D01*
X20512Y-17800D01*
X20550Y-17762D01*
X20550Y-17350D01*
X20542Y-17350D01*
X20542Y-17250D01*
X20550Y-17250D01*
X20550Y-17242D01*
X20650Y-17242D01*
X20650Y-17250D01*
X20657Y-17250D01*
X20657Y-17350D01*
X20650Y-17350D01*
X20650Y-17762D01*
X20687Y-17800D01*
X20650Y-17837D01*
X20650Y-18250D01*
X20657Y-18250D01*
X20657Y-18350D01*
X20650Y-18350D01*
X20650Y-18762D01*
X20687Y-18800D01*
X20650Y-18837D01*
X20650Y-19250D01*
X20657Y-19250D01*
X20657Y-19350D01*
X20650Y-19350D01*
X20650Y-19762D01*
X20687Y-19800D01*
X20650Y-19837D01*
X20650Y-20250D01*
X20657Y-20250D01*
X20657Y-20350D01*
X20650Y-20350D01*
X20650Y-20762D01*
X20687Y-20800D01*
X20650Y-20837D01*
X20650Y-21250D01*
X20657Y-21250D01*
X20657Y-21350D01*
X20650Y-21350D01*
X20650Y-21762D01*
X20687Y-21800D01*
X20650Y-21837D01*
X20650Y-22250D01*
X20657Y-22250D01*
X20657Y-22350D01*
X20650Y-22350D01*
X20650Y-22762D01*
X20712Y-22825D01*
X20735Y-22825D01*
X20735Y-23374D01*
G54D10*
G36*
X25372Y-27769D02*
X25294Y-27737D01*
X25149Y-27737D01*
X24972Y-27737D01*
X24838Y-27792D01*
X24818Y-27812D01*
X24798Y-27793D01*
X24664Y-27737D01*
X24519Y-27737D01*
X24342Y-27737D01*
X24341Y-27737D01*
X24204Y-27737D01*
X24158Y-27737D01*
X24158Y-27728D01*
X24158Y-27551D01*
X24158Y-27550D01*
X24158Y-27414D01*
X24158Y-27237D01*
X24158Y-27236D01*
X24158Y-27182D01*
X24960Y-27182D01*
X24959Y-27256D01*
X25041Y-27455D01*
X25193Y-27607D01*
X25372Y-27681D01*
X25372Y-27769D01*
X25372Y-27769D01*
G37*
G54D31*
X25372Y-27769D02*
X25294Y-27737D01*
X25149Y-27737D01*
X24972Y-27737D01*
X24838Y-27792D01*
X24818Y-27812D01*
X24798Y-27793D01*
X24664Y-27737D01*
X24519Y-27737D01*
X24342Y-27737D01*
X24341Y-27737D01*
X24204Y-27737D01*
X24158Y-27737D01*
X24158Y-27728D01*
X24158Y-27551D01*
X24158Y-27550D01*
X24158Y-27414D01*
X24158Y-27237D01*
X24158Y-27236D01*
X24158Y-27182D01*
X24960Y-27182D01*
X24959Y-27256D01*
X25041Y-27455D01*
X25193Y-27607D01*
X25372Y-27681D01*
X25372Y-27769D01*
G54D10*
G36*
X25463Y-22699D02*
X25412Y-22700D01*
X25350Y-22762D01*
X25350Y-23075D01*
X25357Y-23075D01*
X25357Y-23175D01*
X25350Y-23175D01*
X25350Y-23182D01*
X25250Y-23182D01*
X25250Y-23175D01*
X25242Y-23175D01*
X25242Y-23075D01*
X25250Y-23075D01*
X25250Y-22762D01*
X25187Y-22700D01*
X25074Y-22699D01*
X25063Y-22699D01*
X25207Y-22556D01*
X25240Y-22477D01*
X25463Y-22699D01*
X25463Y-22699D01*
G37*
G54D31*
X25463Y-22699D02*
X25412Y-22700D01*
X25350Y-22762D01*
X25350Y-23075D01*
X25357Y-23075D01*
X25357Y-23175D01*
X25350Y-23175D01*
X25350Y-23182D01*
X25250Y-23182D01*
X25250Y-23175D01*
X25242Y-23175D01*
X25242Y-23075D01*
X25250Y-23075D01*
X25250Y-22762D01*
X25187Y-22700D01*
X25074Y-22699D01*
X25063Y-22699D01*
X25207Y-22556D01*
X25240Y-22477D01*
X25463Y-22699D01*
G54D10*
G36*
X33376Y-17205D02*
X33305Y-17276D01*
X33300Y-17270D01*
X33294Y-17276D01*
X33223Y-17205D01*
X33229Y-17200D01*
X33223Y-17194D01*
X33294Y-17123D01*
X33300Y-17129D01*
X33305Y-17123D01*
X33376Y-17194D01*
X33370Y-17200D01*
X33376Y-17205D01*
X33376Y-17205D01*
G37*
G54D31*
X33376Y-17205D02*
X33305Y-17276D01*
X33300Y-17270D01*
X33294Y-17276D01*
X33223Y-17205D01*
X33229Y-17200D01*
X33223Y-17194D01*
X33294Y-17123D01*
X33300Y-17129D01*
X33305Y-17123D01*
X33376Y-17194D01*
X33370Y-17200D01*
X33376Y-17205D01*
G54D10*
G36*
X35485Y-33279D02*
X35462Y-33257D01*
X35227Y-33160D01*
X34973Y-33159D01*
X34737Y-33257D01*
X34557Y-33437D01*
X34460Y-33672D01*
X34460Y-33831D01*
X34377Y-33865D01*
X34285Y-33957D01*
X32914Y-33957D01*
X32823Y-33865D01*
X32739Y-33831D01*
X32740Y-33673D01*
X32642Y-33437D01*
X32462Y-33257D01*
X32227Y-33160D01*
X31973Y-33159D01*
X31737Y-33257D01*
X31700Y-33294D01*
X31662Y-33257D01*
X31427Y-33160D01*
X31173Y-33159D01*
X30937Y-33257D01*
X30757Y-33437D01*
X30660Y-33672D01*
X30660Y-33831D01*
X30577Y-33865D01*
X30485Y-33957D01*
X29114Y-33957D01*
X29023Y-33865D01*
X28939Y-33831D01*
X28940Y-33673D01*
X28842Y-33437D01*
X28662Y-33257D01*
X28427Y-33160D01*
X28173Y-33159D01*
X27937Y-33257D01*
X27900Y-33294D01*
X27862Y-33257D01*
X27627Y-33160D01*
X27373Y-33159D01*
X27137Y-33257D01*
X26957Y-33437D01*
X26860Y-33672D01*
X26860Y-33831D01*
X26777Y-33865D01*
X26685Y-33957D01*
X26525Y-33957D01*
X26525Y-30562D01*
X26525Y-30150D01*
X26237Y-30150D01*
X26212Y-30150D01*
X25925Y-30150D01*
X25925Y-30562D01*
X25987Y-30625D01*
X26099Y-30625D01*
X26191Y-30587D01*
X26225Y-30553D01*
X26258Y-30587D01*
X26350Y-30625D01*
X26462Y-30625D01*
X26525Y-30562D01*
X26525Y-33957D01*
X25314Y-33957D01*
X25223Y-33865D01*
X25139Y-33831D01*
X25140Y-33673D01*
X25042Y-33437D01*
X24862Y-33257D01*
X24627Y-33160D01*
X24373Y-33159D01*
X24137Y-33257D01*
X24100Y-33294D01*
X24062Y-33257D01*
X23827Y-33160D01*
X23573Y-33159D01*
X23337Y-33257D01*
X23157Y-33437D01*
X23060Y-33672D01*
X23060Y-33831D01*
X22977Y-33865D01*
X22885Y-33957D01*
X21514Y-33957D01*
X21423Y-33865D01*
X21339Y-33831D01*
X21340Y-33673D01*
X21242Y-33437D01*
X21062Y-33257D01*
X20827Y-33160D01*
X20573Y-33159D01*
X20384Y-33237D01*
X20384Y-32932D01*
X20439Y-32987D01*
X20867Y-33164D01*
X21330Y-33165D01*
X21759Y-32988D01*
X22087Y-32660D01*
X22264Y-32232D01*
X22265Y-31769D01*
X22088Y-31340D01*
X21760Y-31012D01*
X21332Y-30835D01*
X20869Y-30834D01*
X20440Y-31011D01*
X20384Y-31068D01*
X20384Y-29503D01*
X20472Y-29539D01*
X20726Y-29540D01*
X20962Y-29442D01*
X21090Y-29314D01*
X21299Y-29314D01*
X21300Y-29314D01*
X21300Y-29314D01*
X21458Y-29283D01*
X21458Y-29283D01*
X21593Y-29193D01*
X21971Y-28815D01*
X22047Y-28815D01*
X22181Y-28759D01*
X22284Y-28657D01*
X22339Y-28522D01*
X22340Y-28377D01*
X22340Y-28287D01*
X22358Y-28283D01*
X22358Y-28283D01*
X22493Y-28193D01*
X22691Y-27994D01*
X22696Y-28006D01*
X22799Y-28109D01*
X22933Y-28165D01*
X22985Y-28165D01*
X22985Y-28628D01*
X22753Y-28859D01*
X22693Y-28859D01*
X22494Y-28941D01*
X22342Y-29093D01*
X22260Y-29292D01*
X22259Y-29506D01*
X22341Y-29705D01*
X22493Y-29857D01*
X22692Y-29939D01*
X22906Y-29940D01*
X23105Y-29858D01*
X23257Y-29706D01*
X23339Y-29507D01*
X23339Y-29446D01*
X23693Y-29093D01*
X23693Y-29093D01*
X23693Y-29093D01*
X23729Y-29039D01*
X23729Y-29039D01*
X23766Y-29039D01*
X23789Y-29095D01*
X23878Y-29184D01*
X23103Y-29959D01*
X23043Y-29959D01*
X22844Y-30041D01*
X22692Y-30193D01*
X22610Y-30392D01*
X22609Y-30606D01*
X22691Y-30805D01*
X22843Y-30957D01*
X22952Y-31002D01*
X22952Y-31128D01*
X22952Y-31915D01*
X23007Y-32049D01*
X23110Y-32152D01*
X23244Y-32208D01*
X23389Y-32208D01*
X25554Y-32208D01*
X25688Y-32153D01*
X25791Y-32050D01*
X25847Y-31916D01*
X25847Y-31771D01*
X25847Y-30984D01*
X25792Y-30850D01*
X25689Y-30747D01*
X25555Y-30691D01*
X25489Y-30691D01*
X25506Y-30684D01*
X25590Y-30600D01*
X25650Y-30625D01*
X25762Y-30625D01*
X25825Y-30562D01*
X25825Y-30150D01*
X25817Y-30150D01*
X25817Y-30050D01*
X25825Y-30050D01*
X25825Y-30042D01*
X25925Y-30042D01*
X25925Y-30050D01*
X26212Y-30050D01*
X26237Y-30050D01*
X26525Y-30050D01*
X26525Y-29637D01*
X26462Y-29575D01*
X26350Y-29574D01*
X26258Y-29612D01*
X26225Y-29646D01*
X26191Y-29612D01*
X26169Y-29604D01*
X26183Y-29583D01*
X26183Y-29583D01*
X26190Y-29545D01*
X26371Y-29365D01*
X26371Y-29365D01*
X26371Y-29365D01*
X26374Y-29361D01*
X26637Y-29624D01*
X26625Y-29637D01*
X26625Y-30050D01*
X26632Y-30050D01*
X26632Y-30150D01*
X26625Y-30150D01*
X26625Y-30562D01*
X26687Y-30625D01*
X26799Y-30625D01*
X26859Y-30600D01*
X26942Y-30684D01*
X26960Y-30691D01*
X26945Y-30691D01*
X26811Y-30746D01*
X26708Y-30849D01*
X26652Y-30983D01*
X26652Y-31128D01*
X26652Y-31915D01*
X26707Y-32049D01*
X26810Y-32152D01*
X26944Y-32208D01*
X27089Y-32208D01*
X29254Y-32208D01*
X29388Y-32153D01*
X29491Y-32050D01*
X29547Y-31916D01*
X29547Y-31771D01*
X29547Y-30984D01*
X29492Y-30850D01*
X29395Y-30752D01*
X30189Y-30752D01*
X30293Y-30857D01*
X30492Y-30939D01*
X30706Y-30940D01*
X30905Y-30858D01*
X30931Y-30831D01*
X31006Y-30943D01*
X31156Y-31093D01*
X31156Y-31093D01*
X31237Y-31147D01*
X31291Y-31183D01*
X31291Y-31183D01*
X31450Y-31214D01*
X31637Y-31214D01*
X31512Y-31339D01*
X31335Y-31767D01*
X31334Y-32230D01*
X31511Y-32659D01*
X31839Y-32987D01*
X32267Y-33164D01*
X32730Y-33165D01*
X33159Y-32988D01*
X33487Y-32660D01*
X33664Y-32232D01*
X33665Y-31900D01*
X33666Y-31908D01*
X33756Y-32043D01*
X34456Y-32743D01*
X34456Y-32743D01*
X34591Y-32833D01*
X34591Y-32833D01*
X34718Y-32858D01*
X34749Y-32864D01*
X34749Y-32864D01*
X34750Y-32864D01*
X35328Y-32864D01*
X35485Y-33021D01*
X35485Y-33279D01*
X35485Y-33279D01*
G37*
G54D31*
X35485Y-33279D02*
X35462Y-33257D01*
X35227Y-33160D01*
X34973Y-33159D01*
X34737Y-33257D01*
X34557Y-33437D01*
X34460Y-33672D01*
X34460Y-33831D01*
X34377Y-33865D01*
X34285Y-33957D01*
X32914Y-33957D01*
X32823Y-33865D01*
X32739Y-33831D01*
X32740Y-33673D01*
X32642Y-33437D01*
X32462Y-33257D01*
X32227Y-33160D01*
X31973Y-33159D01*
X31737Y-33257D01*
X31700Y-33294D01*
X31662Y-33257D01*
X31427Y-33160D01*
X31173Y-33159D01*
X30937Y-33257D01*
X30757Y-33437D01*
X30660Y-33672D01*
X30660Y-33831D01*
X30577Y-33865D01*
X30485Y-33957D01*
X29114Y-33957D01*
X29023Y-33865D01*
X28939Y-33831D01*
X28940Y-33673D01*
X28842Y-33437D01*
X28662Y-33257D01*
X28427Y-33160D01*
X28173Y-33159D01*
X27937Y-33257D01*
X27900Y-33294D01*
X27862Y-33257D01*
X27627Y-33160D01*
X27373Y-33159D01*
X27137Y-33257D01*
X26957Y-33437D01*
X26860Y-33672D01*
X26860Y-33831D01*
X26777Y-33865D01*
X26685Y-33957D01*
X26525Y-33957D01*
X26525Y-30562D01*
X26525Y-30150D01*
X26237Y-30150D01*
X26212Y-30150D01*
X25925Y-30150D01*
X25925Y-30562D01*
X25987Y-30625D01*
X26099Y-30625D01*
X26191Y-30587D01*
X26225Y-30553D01*
X26258Y-30587D01*
X26350Y-30625D01*
X26462Y-30625D01*
X26525Y-30562D01*
X26525Y-33957D01*
X25314Y-33957D01*
X25223Y-33865D01*
X25139Y-33831D01*
X25140Y-33673D01*
X25042Y-33437D01*
X24862Y-33257D01*
X24627Y-33160D01*
X24373Y-33159D01*
X24137Y-33257D01*
X24100Y-33294D01*
X24062Y-33257D01*
X23827Y-33160D01*
X23573Y-33159D01*
X23337Y-33257D01*
X23157Y-33437D01*
X23060Y-33672D01*
X23060Y-33831D01*
X22977Y-33865D01*
X22885Y-33957D01*
X21514Y-33957D01*
X21423Y-33865D01*
X21339Y-33831D01*
X21340Y-33673D01*
X21242Y-33437D01*
X21062Y-33257D01*
X20827Y-33160D01*
X20573Y-33159D01*
X20384Y-33237D01*
X20384Y-32932D01*
X20439Y-32987D01*
X20867Y-33164D01*
X21330Y-33165D01*
X21759Y-32988D01*
X22087Y-32660D01*
X22264Y-32232D01*
X22265Y-31769D01*
X22088Y-31340D01*
X21760Y-31012D01*
X21332Y-30835D01*
X20869Y-30834D01*
X20440Y-31011D01*
X20384Y-31068D01*
X20384Y-29503D01*
X20472Y-29539D01*
X20726Y-29540D01*
X20962Y-29442D01*
X21090Y-29314D01*
X21299Y-29314D01*
X21300Y-29314D01*
X21300Y-29314D01*
X21458Y-29283D01*
X21458Y-29283D01*
X21593Y-29193D01*
X21971Y-28815D01*
X22047Y-28815D01*
X22181Y-28759D01*
X22284Y-28657D01*
X22339Y-28522D01*
X22340Y-28377D01*
X22340Y-28287D01*
X22358Y-28283D01*
X22358Y-28283D01*
X22493Y-28193D01*
X22691Y-27994D01*
X22696Y-28006D01*
X22799Y-28109D01*
X22933Y-28165D01*
X22985Y-28165D01*
X22985Y-28628D01*
X22753Y-28859D01*
X22693Y-28859D01*
X22494Y-28941D01*
X22342Y-29093D01*
X22260Y-29292D01*
X22259Y-29506D01*
X22341Y-29705D01*
X22493Y-29857D01*
X22692Y-29939D01*
X22906Y-29940D01*
X23105Y-29858D01*
X23257Y-29706D01*
X23339Y-29507D01*
X23339Y-29446D01*
X23693Y-29093D01*
X23693Y-29093D01*
X23693Y-29093D01*
X23729Y-29039D01*
X23729Y-29039D01*
X23766Y-29039D01*
X23789Y-29095D01*
X23878Y-29184D01*
X23103Y-29959D01*
X23043Y-29959D01*
X22844Y-30041D01*
X22692Y-30193D01*
X22610Y-30392D01*
X22609Y-30606D01*
X22691Y-30805D01*
X22843Y-30957D01*
X22952Y-31002D01*
X22952Y-31128D01*
X22952Y-31915D01*
X23007Y-32049D01*
X23110Y-32152D01*
X23244Y-32208D01*
X23389Y-32208D01*
X25554Y-32208D01*
X25688Y-32153D01*
X25791Y-32050D01*
X25847Y-31916D01*
X25847Y-31771D01*
X25847Y-30984D01*
X25792Y-30850D01*
X25689Y-30747D01*
X25555Y-30691D01*
X25489Y-30691D01*
X25506Y-30684D01*
X25590Y-30600D01*
X25650Y-30625D01*
X25762Y-30625D01*
X25825Y-30562D01*
X25825Y-30150D01*
X25817Y-30150D01*
X25817Y-30050D01*
X25825Y-30050D01*
X25825Y-30042D01*
X25925Y-30042D01*
X25925Y-30050D01*
X26212Y-30050D01*
X26237Y-30050D01*
X26525Y-30050D01*
X26525Y-29637D01*
X26462Y-29575D01*
X26350Y-29574D01*
X26258Y-29612D01*
X26225Y-29646D01*
X26191Y-29612D01*
X26169Y-29604D01*
X26183Y-29583D01*
X26183Y-29583D01*
X26190Y-29545D01*
X26371Y-29365D01*
X26371Y-29365D01*
X26371Y-29365D01*
X26374Y-29361D01*
X26637Y-29624D01*
X26625Y-29637D01*
X26625Y-30050D01*
X26632Y-30050D01*
X26632Y-30150D01*
X26625Y-30150D01*
X26625Y-30562D01*
X26687Y-30625D01*
X26799Y-30625D01*
X26859Y-30600D01*
X26942Y-30684D01*
X26960Y-30691D01*
X26945Y-30691D01*
X26811Y-30746D01*
X26708Y-30849D01*
X26652Y-30983D01*
X26652Y-31128D01*
X26652Y-31915D01*
X26707Y-32049D01*
X26810Y-32152D01*
X26944Y-32208D01*
X27089Y-32208D01*
X29254Y-32208D01*
X29388Y-32153D01*
X29491Y-32050D01*
X29547Y-31916D01*
X29547Y-31771D01*
X29547Y-30984D01*
X29492Y-30850D01*
X29395Y-30752D01*
X30189Y-30752D01*
X30293Y-30857D01*
X30492Y-30939D01*
X30706Y-30940D01*
X30905Y-30858D01*
X30931Y-30831D01*
X31006Y-30943D01*
X31156Y-31093D01*
X31156Y-31093D01*
X31237Y-31147D01*
X31291Y-31183D01*
X31291Y-31183D01*
X31450Y-31214D01*
X31637Y-31214D01*
X31512Y-31339D01*
X31335Y-31767D01*
X31334Y-32230D01*
X31511Y-32659D01*
X31839Y-32987D01*
X32267Y-33164D01*
X32730Y-33165D01*
X33159Y-32988D01*
X33487Y-32660D01*
X33664Y-32232D01*
X33665Y-31900D01*
X33666Y-31908D01*
X33756Y-32043D01*
X34456Y-32743D01*
X34456Y-32743D01*
X34591Y-32833D01*
X34591Y-32833D01*
X34718Y-32858D01*
X34749Y-32864D01*
X34749Y-32864D01*
X34750Y-32864D01*
X35328Y-32864D01*
X35485Y-33021D01*
X35485Y-33279D01*
G54D10*
G36*
X37081Y-18156D02*
X37074Y-18171D01*
X36704Y-18171D01*
X36642Y-18234D01*
X36642Y-18371D01*
X36542Y-18371D01*
X36542Y-18234D01*
X36479Y-18171D01*
X36089Y-18171D01*
X35997Y-18209D01*
X35927Y-18279D01*
X35889Y-18371D01*
X35889Y-18408D01*
X35920Y-18439D01*
X35889Y-18469D01*
X35889Y-18469D01*
X35889Y-18470D01*
X35888Y-18470D01*
X35888Y-18470D01*
X35829Y-18529D01*
X35774Y-18663D01*
X35773Y-18808D01*
X35773Y-19005D01*
X35774Y-19006D01*
X35774Y-19066D01*
X35757Y-19060D01*
X35543Y-19059D01*
X35344Y-19141D01*
X35192Y-19293D01*
X35110Y-19492D01*
X35110Y-19534D01*
X35097Y-19547D01*
X35004Y-19686D01*
X34972Y-19850D01*
X34972Y-20635D01*
X34927Y-20634D01*
X34527Y-20634D01*
X34393Y-20690D01*
X34290Y-20792D01*
X34257Y-20872D01*
X34150Y-20872D01*
X34142Y-20872D01*
X34109Y-20793D01*
X34007Y-20690D01*
X33872Y-20635D01*
X33825Y-20635D01*
X33727Y-20634D01*
X33327Y-20634D01*
X33300Y-20646D01*
X33272Y-20635D01*
X33127Y-20634D01*
X32727Y-20634D01*
X32593Y-20690D01*
X32490Y-20792D01*
X32435Y-20927D01*
X32434Y-21072D01*
X32434Y-21259D01*
X32265Y-21428D01*
X32243Y-21406D01*
X32108Y-21316D01*
X31950Y-21285D01*
X31949Y-21285D01*
X30324Y-21285D01*
X30325Y-21200D01*
X30325Y-20799D01*
X30324Y-20700D01*
X30286Y-20608D01*
X30216Y-20537D01*
X30124Y-20499D01*
X30062Y-20500D01*
X30000Y-20562D01*
X30000Y-20950D01*
X30262Y-20950D01*
X30325Y-20887D01*
X30325Y-20799D01*
X30325Y-21200D01*
X30325Y-21112D01*
X30262Y-21050D01*
X30000Y-21050D01*
X30000Y-21057D01*
X29940Y-21057D01*
X29940Y-20677D01*
X29900Y-20580D01*
X29900Y-20562D01*
X29887Y-20549D01*
X29884Y-20543D01*
X29782Y-20440D01*
X29647Y-20385D01*
X29539Y-20385D01*
X29540Y-20293D01*
X29528Y-20264D01*
X30200Y-20264D01*
X31549Y-20264D01*
X31550Y-20264D01*
X31550Y-20264D01*
X31708Y-20233D01*
X31708Y-20233D01*
X31843Y-20143D01*
X32343Y-19643D01*
X32343Y-19643D01*
X32343Y-19643D01*
X32397Y-19562D01*
X32433Y-19508D01*
X32433Y-19508D01*
X32464Y-19350D01*
X32464Y-19128D01*
X32493Y-19157D01*
X32692Y-19239D01*
X32906Y-19240D01*
X33105Y-19158D01*
X33257Y-19006D01*
X33339Y-18807D01*
X33340Y-18593D01*
X33311Y-18525D01*
X33350Y-18525D01*
X33350Y-18462D01*
X33412Y-18525D01*
X33624Y-18525D01*
X33716Y-18487D01*
X33786Y-18416D01*
X33824Y-18324D01*
X33825Y-18225D01*
X33825Y-18112D01*
X33762Y-18050D01*
X33350Y-18050D01*
X33350Y-18057D01*
X33250Y-18057D01*
X33250Y-18050D01*
X33242Y-18050D01*
X33242Y-17950D01*
X33250Y-17950D01*
X33250Y-17942D01*
X33350Y-17942D01*
X33350Y-17950D01*
X33762Y-17950D01*
X33825Y-17887D01*
X33825Y-17774D01*
X33824Y-17675D01*
X33786Y-17583D01*
X33716Y-17512D01*
X33674Y-17495D01*
X33760Y-17472D01*
X33829Y-17275D01*
X33818Y-17067D01*
X33784Y-16984D01*
X35774Y-16984D01*
X35773Y-17076D01*
X35773Y-17863D01*
X35829Y-17997D01*
X35931Y-18100D01*
X36066Y-18156D01*
X36211Y-18156D01*
X37081Y-18156D01*
X37081Y-18156D01*
G37*
G54D31*
X37081Y-18156D02*
X37074Y-18171D01*
X36704Y-18171D01*
X36642Y-18234D01*
X36642Y-18371D01*
X36542Y-18371D01*
X36542Y-18234D01*
X36479Y-18171D01*
X36089Y-18171D01*
X35997Y-18209D01*
X35927Y-18279D01*
X35889Y-18371D01*
X35889Y-18408D01*
X35920Y-18439D01*
X35889Y-18469D01*
X35889Y-18469D01*
X35889Y-18470D01*
X35888Y-18470D01*
X35888Y-18470D01*
X35829Y-18529D01*
X35774Y-18663D01*
X35773Y-18808D01*
X35773Y-19005D01*
X35774Y-19006D01*
X35774Y-19066D01*
X35757Y-19060D01*
X35543Y-19059D01*
X35344Y-19141D01*
X35192Y-19293D01*
X35110Y-19492D01*
X35110Y-19534D01*
X35097Y-19547D01*
X35004Y-19686D01*
X34972Y-19850D01*
X34972Y-20635D01*
X34927Y-20634D01*
X34527Y-20634D01*
X34393Y-20690D01*
X34290Y-20792D01*
X34257Y-20872D01*
X34150Y-20872D01*
X34142Y-20872D01*
X34109Y-20793D01*
X34007Y-20690D01*
X33872Y-20635D01*
X33825Y-20635D01*
X33727Y-20634D01*
X33327Y-20634D01*
X33300Y-20646D01*
X33272Y-20635D01*
X33127Y-20634D01*
X32727Y-20634D01*
X32593Y-20690D01*
X32490Y-20792D01*
X32435Y-20927D01*
X32434Y-21072D01*
X32434Y-21259D01*
X32265Y-21428D01*
X32243Y-21406D01*
X32108Y-21316D01*
X31950Y-21285D01*
X31949Y-21285D01*
X30324Y-21285D01*
X30325Y-21200D01*
X30325Y-20799D01*
X30324Y-20700D01*
X30286Y-20608D01*
X30216Y-20537D01*
X30124Y-20499D01*
X30062Y-20500D01*
X30000Y-20562D01*
X30000Y-20950D01*
X30262Y-20950D01*
X30325Y-20887D01*
X30325Y-20799D01*
X30325Y-21200D01*
X30325Y-21112D01*
X30262Y-21050D01*
X30000Y-21050D01*
X30000Y-21057D01*
X29940Y-21057D01*
X29940Y-20677D01*
X29900Y-20580D01*
X29900Y-20562D01*
X29887Y-20549D01*
X29884Y-20543D01*
X29782Y-20440D01*
X29647Y-20385D01*
X29539Y-20385D01*
X29540Y-20293D01*
X29528Y-20264D01*
X30200Y-20264D01*
X31549Y-20264D01*
X31550Y-20264D01*
X31550Y-20264D01*
X31708Y-20233D01*
X31708Y-20233D01*
X31843Y-20143D01*
X32343Y-19643D01*
X32343Y-19643D01*
X32343Y-19643D01*
X32397Y-19562D01*
X32433Y-19508D01*
X32433Y-19508D01*
X32464Y-19350D01*
X32464Y-19128D01*
X32493Y-19157D01*
X32692Y-19239D01*
X32906Y-19240D01*
X33105Y-19158D01*
X33257Y-19006D01*
X33339Y-18807D01*
X33340Y-18593D01*
X33311Y-18525D01*
X33350Y-18525D01*
X33350Y-18462D01*
X33412Y-18525D01*
X33624Y-18525D01*
X33716Y-18487D01*
X33786Y-18416D01*
X33824Y-18324D01*
X33825Y-18225D01*
X33825Y-18112D01*
X33762Y-18050D01*
X33350Y-18050D01*
X33350Y-18057D01*
X33250Y-18057D01*
X33250Y-18050D01*
X33242Y-18050D01*
X33242Y-17950D01*
X33250Y-17950D01*
X33250Y-17942D01*
X33350Y-17942D01*
X33350Y-17950D01*
X33762Y-17950D01*
X33825Y-17887D01*
X33825Y-17774D01*
X33824Y-17675D01*
X33786Y-17583D01*
X33716Y-17512D01*
X33674Y-17495D01*
X33760Y-17472D01*
X33829Y-17275D01*
X33818Y-17067D01*
X33784Y-16984D01*
X35774Y-16984D01*
X35773Y-17076D01*
X35773Y-17863D01*
X35829Y-17997D01*
X35931Y-18100D01*
X36066Y-18156D01*
X36211Y-18156D01*
X37081Y-18156D01*
G54D10*
G36*
X39215Y-20143D02*
X38231Y-20143D01*
X38131Y-20184D01*
X38156Y-20124D01*
X38157Y-19908D01*
X38074Y-19709D01*
X37922Y-19556D01*
X37723Y-19474D01*
X37507Y-19473D01*
X37410Y-19514D01*
X37410Y-19491D01*
X37410Y-19294D01*
X37409Y-19293D01*
X37410Y-19176D01*
X37410Y-18979D01*
X37409Y-18978D01*
X37410Y-18861D01*
X37410Y-18785D01*
X37506Y-18825D01*
X37722Y-18826D01*
X37921Y-18743D01*
X38074Y-18591D01*
X38156Y-18392D01*
X38157Y-18176D01*
X38131Y-18115D01*
X38231Y-18156D01*
X38376Y-18156D01*
X39215Y-18156D01*
X39215Y-20143D01*
X39215Y-20143D01*
G37*
G54D31*
X39215Y-20143D02*
X38231Y-20143D01*
X38131Y-20184D01*
X38156Y-20124D01*
X38157Y-19908D01*
X38074Y-19709D01*
X37922Y-19556D01*
X37723Y-19474D01*
X37507Y-19473D01*
X37410Y-19514D01*
X37410Y-19491D01*
X37410Y-19294D01*
X37409Y-19293D01*
X37410Y-19176D01*
X37410Y-18979D01*
X37409Y-18978D01*
X37410Y-18861D01*
X37410Y-18785D01*
X37506Y-18825D01*
X37722Y-18826D01*
X37921Y-18743D01*
X38074Y-18591D01*
X38156Y-18392D01*
X38157Y-18176D01*
X38131Y-18115D01*
X38231Y-18156D01*
X38376Y-18156D01*
X39215Y-18156D01*
X39215Y-20143D01*
G54D10*
G36*
X39215Y-35232D02*
X39200Y-35232D01*
X39200Y-35225D01*
X38787Y-35225D01*
X38725Y-35287D01*
X38724Y-35298D01*
X38627Y-35339D01*
X38602Y-35432D01*
X38631Y-35460D01*
X38631Y-35601D01*
X38532Y-35502D01*
X38531Y-35503D01*
X38531Y-35443D01*
X38468Y-35381D01*
X38334Y-35380D01*
X38242Y-35418D01*
X38172Y-35489D01*
X38134Y-35581D01*
X38133Y-35680D01*
X38134Y-35715D01*
X38196Y-35777D01*
X38134Y-35777D01*
X38134Y-35815D01*
X36666Y-35815D01*
X36666Y-35777D01*
X36603Y-35777D01*
X36666Y-35715D01*
X36666Y-35680D01*
X36665Y-35581D01*
X36627Y-35489D01*
X36557Y-35418D01*
X36465Y-35380D01*
X36331Y-35381D01*
X36269Y-35443D01*
X36269Y-35503D01*
X36267Y-35502D01*
X36169Y-35601D01*
X36169Y-35460D01*
X36197Y-35432D01*
X36172Y-35339D01*
X35975Y-35270D01*
X35767Y-35281D01*
X35627Y-35339D01*
X35602Y-35432D01*
X35772Y-35601D01*
X35771Y-35680D01*
X35772Y-35715D01*
X35834Y-35777D01*
X35807Y-35777D01*
X35563Y-35534D01*
X35560Y-35527D01*
X35555Y-35525D01*
X35532Y-35502D01*
X35500Y-35511D01*
X35467Y-35502D01*
X35444Y-35525D01*
X35439Y-35527D01*
X35437Y-35533D01*
X35192Y-35777D01*
X35165Y-35777D01*
X35228Y-35715D01*
X35228Y-35680D01*
X35227Y-35601D01*
X35397Y-35432D01*
X35372Y-35339D01*
X35175Y-35270D01*
X34967Y-35281D01*
X34827Y-35339D01*
X34802Y-35432D01*
X34831Y-35460D01*
X34831Y-35601D01*
X34732Y-35502D01*
X34731Y-35503D01*
X34731Y-35443D01*
X34668Y-35381D01*
X34534Y-35380D01*
X34442Y-35418D01*
X34372Y-35489D01*
X34334Y-35581D01*
X34333Y-35680D01*
X34334Y-35715D01*
X34396Y-35777D01*
X34334Y-35777D01*
X34334Y-35815D01*
X32866Y-35815D01*
X32866Y-35777D01*
X32803Y-35777D01*
X32866Y-35715D01*
X32866Y-35680D01*
X32865Y-35581D01*
X32827Y-35489D01*
X32757Y-35418D01*
X32665Y-35380D01*
X32531Y-35381D01*
X32469Y-35443D01*
X32469Y-35503D01*
X32467Y-35502D01*
X32369Y-35601D01*
X32369Y-35460D01*
X32397Y-35432D01*
X32372Y-35339D01*
X32275Y-35305D01*
X32275Y-35287D01*
X32212Y-35225D01*
X31800Y-35225D01*
X31800Y-35232D01*
X31700Y-35232D01*
X31700Y-35225D01*
X31287Y-35225D01*
X31234Y-35277D01*
X31167Y-35281D01*
X31027Y-35339D01*
X31002Y-35432D01*
X31031Y-35460D01*
X31031Y-35601D01*
X30932Y-35502D01*
X30931Y-35503D01*
X30931Y-35443D01*
X30868Y-35381D01*
X30734Y-35380D01*
X30642Y-35418D01*
X30572Y-35489D01*
X30534Y-35581D01*
X30533Y-35680D01*
X30534Y-35715D01*
X30596Y-35777D01*
X30534Y-35777D01*
X30534Y-35815D01*
X29066Y-35815D01*
X29066Y-35777D01*
X29003Y-35777D01*
X29066Y-35715D01*
X29066Y-35680D01*
X29065Y-35581D01*
X29027Y-35489D01*
X28957Y-35418D01*
X28865Y-35380D01*
X28731Y-35381D01*
X28669Y-35443D01*
X28669Y-35503D01*
X28667Y-35502D01*
X28569Y-35601D01*
X28569Y-35460D01*
X28597Y-35432D01*
X28572Y-35339D01*
X28475Y-35305D01*
X28475Y-35287D01*
X28412Y-35225D01*
X28000Y-35225D01*
X28000Y-35232D01*
X27900Y-35232D01*
X27900Y-35225D01*
X27487Y-35225D01*
X27434Y-35277D01*
X27367Y-35281D01*
X27227Y-35339D01*
X27202Y-35432D01*
X27231Y-35460D01*
X27231Y-35601D01*
X27132Y-35502D01*
X27131Y-35503D01*
X27131Y-35443D01*
X27068Y-35381D01*
X26934Y-35380D01*
X26842Y-35418D01*
X26772Y-35489D01*
X26734Y-35581D01*
X26733Y-35680D01*
X26734Y-35715D01*
X26796Y-35777D01*
X26734Y-35777D01*
X26734Y-35815D01*
X25266Y-35815D01*
X25266Y-35777D01*
X25203Y-35777D01*
X25266Y-35715D01*
X25266Y-35680D01*
X25265Y-35581D01*
X25227Y-35489D01*
X25157Y-35418D01*
X25065Y-35380D01*
X24931Y-35381D01*
X24869Y-35443D01*
X24869Y-35503D01*
X24867Y-35502D01*
X24769Y-35601D01*
X24769Y-35460D01*
X24797Y-35432D01*
X24772Y-35339D01*
X24725Y-35322D01*
X24725Y-35287D01*
X24662Y-35225D01*
X24250Y-35225D01*
X24250Y-35232D01*
X24150Y-35232D01*
X24150Y-35225D01*
X23737Y-35225D01*
X23687Y-35274D01*
X23567Y-35281D01*
X23427Y-35339D01*
X23402Y-35432D01*
X23431Y-35460D01*
X23431Y-35601D01*
X23332Y-35502D01*
X23331Y-35503D01*
X23331Y-35443D01*
X23268Y-35381D01*
X23134Y-35380D01*
X23042Y-35418D01*
X22972Y-35489D01*
X22934Y-35581D01*
X22933Y-35680D01*
X22934Y-35715D01*
X22996Y-35777D01*
X22934Y-35777D01*
X22934Y-35815D01*
X21466Y-35815D01*
X21466Y-35777D01*
X21403Y-35777D01*
X21466Y-35715D01*
X21466Y-35680D01*
X21465Y-35581D01*
X21427Y-35489D01*
X21357Y-35418D01*
X21265Y-35380D01*
X21131Y-35381D01*
X21069Y-35443D01*
X21069Y-35503D01*
X21067Y-35502D01*
X20969Y-35601D01*
X20969Y-35460D01*
X20997Y-35432D01*
X20972Y-35339D01*
X20875Y-35305D01*
X20875Y-35237D01*
X20812Y-35175D01*
X20400Y-35175D01*
X20400Y-35182D01*
X20384Y-35182D01*
X20384Y-35067D01*
X20400Y-35067D01*
X20400Y-35075D01*
X20812Y-35075D01*
X20875Y-35012D01*
X20875Y-34934D01*
X20894Y-34934D01*
X21288Y-34934D01*
X21422Y-34878D01*
X21514Y-34786D01*
X22885Y-34786D01*
X22976Y-34878D01*
X23111Y-34933D01*
X23256Y-34934D01*
X23650Y-34934D01*
X23688Y-34918D01*
X23674Y-34950D01*
X23675Y-35062D01*
X23737Y-35125D01*
X24150Y-35125D01*
X24150Y-35117D01*
X24250Y-35117D01*
X24250Y-35125D01*
X24662Y-35125D01*
X24725Y-35062D01*
X24725Y-34950D01*
X24718Y-34934D01*
X25088Y-34934D01*
X25222Y-34878D01*
X25314Y-34786D01*
X26685Y-34786D01*
X26776Y-34878D01*
X26911Y-34933D01*
X27056Y-34934D01*
X27431Y-34934D01*
X27424Y-34950D01*
X27425Y-35062D01*
X27487Y-35125D01*
X27900Y-35125D01*
X27900Y-35117D01*
X28000Y-35117D01*
X28000Y-35125D01*
X28412Y-35125D01*
X28475Y-35062D01*
X28475Y-34950D01*
X28468Y-34934D01*
X28494Y-34934D01*
X28888Y-34934D01*
X29022Y-34878D01*
X29114Y-34786D01*
X30485Y-34786D01*
X30576Y-34878D01*
X30711Y-34933D01*
X30856Y-34934D01*
X31231Y-34934D01*
X31224Y-34950D01*
X31225Y-35062D01*
X31287Y-35125D01*
X31700Y-35125D01*
X31700Y-35117D01*
X31800Y-35117D01*
X31800Y-35125D01*
X32212Y-35125D01*
X32275Y-35062D01*
X32275Y-34950D01*
X32268Y-34934D01*
X32294Y-34934D01*
X32688Y-34934D01*
X32822Y-34878D01*
X32914Y-34786D01*
X34285Y-34786D01*
X34376Y-34878D01*
X34511Y-34933D01*
X34656Y-34934D01*
X35050Y-34934D01*
X35184Y-34878D01*
X35287Y-34776D01*
X35342Y-34641D01*
X35343Y-34496D01*
X35343Y-34392D01*
X35462Y-34342D01*
X35499Y-34305D01*
X35537Y-34342D01*
X35656Y-34392D01*
X35656Y-34641D01*
X35712Y-34775D01*
X35814Y-34878D01*
X35949Y-34933D01*
X36094Y-34934D01*
X36488Y-34934D01*
X36622Y-34878D01*
X36725Y-34776D01*
X36780Y-34641D01*
X36781Y-34496D01*
X36781Y-34102D01*
X36725Y-33968D01*
X36623Y-33865D01*
X36539Y-33831D01*
X36540Y-33673D01*
X36442Y-33437D01*
X36314Y-33309D01*
X36314Y-32850D01*
X36314Y-32849D01*
X36314Y-32849D01*
X36308Y-32818D01*
X36283Y-32691D01*
X36283Y-32691D01*
X36193Y-32556D01*
X36193Y-32556D01*
X35964Y-32327D01*
X37050Y-32327D01*
X37213Y-32295D01*
X37352Y-32202D01*
X37752Y-31802D01*
X37752Y-31802D01*
X37752Y-31802D01*
X37845Y-31663D01*
X37845Y-31663D01*
X37848Y-31646D01*
X37887Y-31662D01*
X38111Y-31662D01*
X38317Y-31577D01*
X38476Y-31419D01*
X38561Y-31213D01*
X38561Y-30989D01*
X38476Y-30782D01*
X38318Y-30624D01*
X38112Y-30539D01*
X37888Y-30538D01*
X37877Y-30543D01*
X37877Y-29600D01*
X37845Y-29436D01*
X37752Y-29297D01*
X37652Y-29197D01*
X37513Y-29104D01*
X37350Y-29072D01*
X37043Y-29072D01*
X37065Y-29018D01*
X37066Y-28919D01*
X37066Y-28624D01*
X37065Y-28525D01*
X37027Y-28433D01*
X36957Y-28362D01*
X36865Y-28324D01*
X36731Y-28325D01*
X36669Y-28387D01*
X36669Y-28722D01*
X37003Y-28722D01*
X37066Y-28659D01*
X37066Y-28624D01*
X37066Y-28919D01*
X37066Y-28884D01*
X37003Y-28822D01*
X36669Y-28822D01*
X36669Y-28829D01*
X36569Y-28829D01*
X36569Y-28822D01*
X36561Y-28822D01*
X36561Y-28722D01*
X36569Y-28722D01*
X36569Y-28387D01*
X36506Y-28325D01*
X36372Y-28324D01*
X36280Y-28362D01*
X36239Y-28403D01*
X36239Y-24273D01*
X36307Y-24206D01*
X36389Y-24007D01*
X36390Y-23793D01*
X36308Y-23594D01*
X36156Y-23442D01*
X35957Y-23360D01*
X35743Y-23359D01*
X35544Y-23441D01*
X35392Y-23593D01*
X35310Y-23792D01*
X35309Y-24006D01*
X35391Y-24205D01*
X35410Y-24223D01*
X35410Y-29149D01*
X35408Y-29144D01*
X35364Y-29101D01*
X35364Y-24400D01*
X35333Y-24241D01*
X35333Y-24241D01*
X35297Y-24187D01*
X35243Y-24106D01*
X35243Y-24106D01*
X34990Y-23853D01*
X34990Y-23793D01*
X34908Y-23594D01*
X34756Y-23442D01*
X34557Y-23360D01*
X34343Y-23359D01*
X34144Y-23441D01*
X33992Y-23593D01*
X33910Y-23792D01*
X33909Y-24006D01*
X33991Y-24205D01*
X34143Y-24357D01*
X34342Y-24439D01*
X34403Y-24439D01*
X34535Y-24571D01*
X34535Y-29101D01*
X34492Y-29143D01*
X34410Y-29342D01*
X34409Y-29535D01*
X33390Y-29535D01*
X33455Y-29508D01*
X33607Y-29356D01*
X33689Y-29157D01*
X33690Y-28943D01*
X33608Y-28744D01*
X33564Y-28701D01*
X33564Y-27800D01*
X33564Y-26900D01*
X33564Y-26899D01*
X33564Y-26899D01*
X33558Y-26868D01*
X33533Y-26741D01*
X33533Y-26741D01*
X33443Y-26606D01*
X33443Y-26606D01*
X32726Y-25889D01*
X32708Y-25844D01*
X32556Y-25692D01*
X32357Y-25610D01*
X32143Y-25609D01*
X31944Y-25691D01*
X31792Y-25843D01*
X31710Y-26042D01*
X31709Y-26256D01*
X31769Y-26400D01*
X31710Y-26542D01*
X31709Y-26756D01*
X31730Y-26806D01*
X31692Y-26843D01*
X31686Y-26857D01*
X31683Y-26841D01*
X31683Y-26841D01*
X31593Y-26706D01*
X31593Y-26706D01*
X31243Y-26356D01*
X31108Y-26266D01*
X31102Y-26265D01*
X31102Y-24550D01*
X31101Y-24412D01*
X31039Y-24350D01*
X30222Y-24350D01*
X30222Y-24688D01*
X30285Y-24750D01*
X30802Y-24750D01*
X30901Y-24750D01*
X30993Y-24712D01*
X31064Y-24642D01*
X31102Y-24550D01*
X31102Y-26265D01*
X30975Y-26240D01*
X30975Y-25650D01*
X30975Y-25138D01*
X30937Y-25046D01*
X30867Y-24976D01*
X30775Y-24938D01*
X30675Y-24937D01*
X30631Y-24937D01*
X30569Y-25000D01*
X30569Y-25344D01*
X30913Y-25344D01*
X30975Y-25281D01*
X30975Y-25138D01*
X30975Y-25650D01*
X30975Y-25506D01*
X30913Y-25444D01*
X30569Y-25444D01*
X30569Y-25788D01*
X30631Y-25850D01*
X30675Y-25851D01*
X30775Y-25850D01*
X30867Y-25812D01*
X30937Y-25742D01*
X30975Y-25650D01*
X30975Y-26240D01*
X30950Y-26235D01*
X30949Y-26235D01*
X30469Y-26235D01*
X30469Y-25788D01*
X30469Y-25444D01*
X30469Y-25344D01*
X30469Y-25000D01*
X30406Y-24937D01*
X30362Y-24937D01*
X30262Y-24938D01*
X30174Y-24974D01*
X30085Y-24938D01*
X29986Y-24937D01*
X29912Y-24937D01*
X29850Y-25000D01*
X29850Y-25344D01*
X30125Y-25344D01*
X30223Y-25344D01*
X30469Y-25344D01*
X30469Y-25444D01*
X30223Y-25444D01*
X30125Y-25444D01*
X29850Y-25444D01*
X29850Y-25788D01*
X29912Y-25850D01*
X29986Y-25851D01*
X30085Y-25850D01*
X30174Y-25814D01*
X30262Y-25850D01*
X30362Y-25851D01*
X30406Y-25850D01*
X30469Y-25788D01*
X30469Y-26235D01*
X29750Y-26235D01*
X29750Y-25788D01*
X29750Y-25444D01*
X29475Y-25444D01*
X29376Y-25444D01*
X29131Y-25444D01*
X29131Y-25788D01*
X29193Y-25850D01*
X29237Y-25851D01*
X29337Y-25850D01*
X29425Y-25814D01*
X29514Y-25850D01*
X29613Y-25851D01*
X29687Y-25850D01*
X29750Y-25788D01*
X29750Y-26235D01*
X29064Y-26235D01*
X29064Y-25379D01*
X29064Y-25379D01*
X29128Y-25336D01*
X29131Y-25336D01*
X29131Y-25344D01*
X29376Y-25344D01*
X29475Y-25344D01*
X29750Y-25344D01*
X29750Y-25000D01*
X29687Y-24937D01*
X29613Y-24937D01*
X29514Y-24938D01*
X29485Y-24950D01*
X29514Y-24800D01*
X29514Y-24750D01*
X29543Y-24750D01*
X30060Y-24750D01*
X30122Y-24688D01*
X30122Y-24350D01*
X30114Y-24350D01*
X30114Y-24250D01*
X30122Y-24250D01*
X30122Y-24242D01*
X30222Y-24242D01*
X30222Y-24250D01*
X31039Y-24250D01*
X31101Y-24187D01*
X31102Y-24049D01*
X31064Y-23957D01*
X30993Y-23887D01*
X30933Y-23862D01*
X31058Y-23810D01*
X31161Y-23707D01*
X31216Y-23573D01*
X31216Y-23446D01*
X31357Y-23306D01*
X31439Y-23107D01*
X31440Y-22893D01*
X31371Y-22727D01*
X33514Y-22727D01*
X33543Y-22757D01*
X33742Y-22839D01*
X33956Y-22840D01*
X34155Y-22758D01*
X34307Y-22606D01*
X34389Y-22407D01*
X34389Y-22365D01*
X34452Y-22302D01*
X34452Y-22302D01*
X34545Y-22163D01*
X34577Y-22000D01*
X34577Y-22000D01*
X34577Y-21964D01*
X34672Y-21965D01*
X35072Y-21965D01*
X35099Y-21953D01*
X35127Y-21964D01*
X35272Y-21965D01*
X35672Y-21965D01*
X35806Y-21909D01*
X35909Y-21807D01*
X35964Y-21672D01*
X35964Y-21618D01*
X36066Y-21660D01*
X36211Y-21660D01*
X37195Y-21660D01*
X37329Y-21605D01*
X37432Y-21502D01*
X37487Y-21368D01*
X37488Y-21223D01*
X37488Y-20550D01*
X37506Y-20557D01*
X37722Y-20558D01*
X37921Y-20475D01*
X37939Y-20458D01*
X37938Y-20580D01*
X37938Y-21367D01*
X37994Y-21501D01*
X38096Y-21604D01*
X38180Y-21639D01*
X38125Y-21620D01*
X37917Y-21631D01*
X37777Y-21689D01*
X37752Y-21782D01*
X38050Y-22079D01*
X38055Y-22073D01*
X38126Y-22144D01*
X38120Y-22150D01*
X38126Y-22155D01*
X38055Y-22226D01*
X38050Y-22220D01*
X37979Y-22291D01*
X37979Y-22150D01*
X37682Y-21852D01*
X37589Y-21877D01*
X37520Y-22074D01*
X37531Y-22282D01*
X37589Y-22422D01*
X37682Y-22447D01*
X37979Y-22150D01*
X37979Y-22291D01*
X37752Y-22517D01*
X37777Y-22610D01*
X37974Y-22679D01*
X38182Y-22668D01*
X38322Y-22610D01*
X38347Y-22517D01*
X38347Y-22517D01*
X38392Y-22563D01*
X38424Y-22531D01*
X38465Y-22631D01*
X38567Y-22734D01*
X38702Y-22789D01*
X38847Y-22790D01*
X39215Y-22790D01*
X39215Y-23361D01*
X39143Y-23186D01*
X38930Y-22973D01*
X38651Y-22857D01*
X38349Y-22857D01*
X38347Y-22858D01*
X38070Y-22972D01*
X37958Y-23085D01*
X37850Y-23085D01*
X37691Y-23116D01*
X37637Y-23152D01*
X37556Y-23206D01*
X37556Y-23206D01*
X37406Y-23356D01*
X37316Y-23491D01*
X37285Y-23650D01*
X37285Y-23650D01*
X37285Y-25051D01*
X37242Y-25093D01*
X37160Y-25292D01*
X37159Y-25506D01*
X37241Y-25705D01*
X37393Y-25857D01*
X37592Y-25939D01*
X37806Y-25940D01*
X37823Y-25933D01*
X37856Y-26013D01*
X38069Y-26226D01*
X38348Y-26342D01*
X38650Y-26342D01*
X38929Y-26227D01*
X39142Y-26014D01*
X39215Y-25839D01*
X39215Y-28324D01*
X39093Y-28325D01*
X39031Y-28387D01*
X39031Y-28722D01*
X39038Y-28722D01*
X39038Y-28822D01*
X39031Y-28822D01*
X39031Y-29156D01*
X39093Y-29219D01*
X39215Y-29219D01*
X39215Y-29666D01*
X39105Y-29665D01*
X38931Y-29665D01*
X38931Y-29156D01*
X38931Y-28822D01*
X38931Y-28722D01*
X38931Y-28387D01*
X38868Y-28325D01*
X38734Y-28324D01*
X38642Y-28362D01*
X38572Y-28433D01*
X38561Y-28457D01*
X38561Y-27847D01*
X38476Y-27641D01*
X38318Y-27483D01*
X38112Y-27397D01*
X37888Y-27397D01*
X37682Y-27482D01*
X37523Y-27640D01*
X37438Y-27846D01*
X37438Y-28070D01*
X37523Y-28276D01*
X37681Y-28435D01*
X37887Y-28520D01*
X38111Y-28520D01*
X38317Y-28435D01*
X38476Y-28277D01*
X38561Y-28071D01*
X38561Y-27847D01*
X38561Y-28457D01*
X38534Y-28525D01*
X38533Y-28624D01*
X38534Y-28659D01*
X38596Y-28722D01*
X38931Y-28722D01*
X38931Y-28822D01*
X38596Y-28822D01*
X38534Y-28884D01*
X38533Y-28919D01*
X38534Y-29018D01*
X38572Y-29110D01*
X38642Y-29181D01*
X38734Y-29219D01*
X38868Y-29219D01*
X38931Y-29156D01*
X38931Y-29665D01*
X38711Y-29665D01*
X38577Y-29721D01*
X38474Y-29823D01*
X38419Y-29958D01*
X38418Y-30103D01*
X38418Y-30497D01*
X38474Y-30631D01*
X38576Y-30734D01*
X38711Y-30789D01*
X38856Y-30790D01*
X39215Y-30790D01*
X39215Y-33238D01*
X39027Y-33160D01*
X38773Y-33159D01*
X38537Y-33257D01*
X38357Y-33437D01*
X38260Y-33672D01*
X38260Y-33831D01*
X38177Y-33865D01*
X38074Y-33967D01*
X38019Y-34102D01*
X38018Y-34247D01*
X38018Y-34641D01*
X38074Y-34775D01*
X38176Y-34878D01*
X38311Y-34933D01*
X38456Y-34934D01*
X38731Y-34934D01*
X38724Y-34950D01*
X38725Y-35062D01*
X38787Y-35125D01*
X39200Y-35125D01*
X39200Y-35117D01*
X39215Y-35117D01*
X39215Y-35232D01*
X39215Y-35232D01*
G37*
G54D31*
X39215Y-35232D02*
X39200Y-35232D01*
X39200Y-35225D01*
X38787Y-35225D01*
X38725Y-35287D01*
X38724Y-35298D01*
X38627Y-35339D01*
X38602Y-35432D01*
X38631Y-35460D01*
X38631Y-35601D01*
X38532Y-35502D01*
X38531Y-35503D01*
X38531Y-35443D01*
X38468Y-35381D01*
X38334Y-35380D01*
X38242Y-35418D01*
X38172Y-35489D01*
X38134Y-35581D01*
X38133Y-35680D01*
X38134Y-35715D01*
X38196Y-35777D01*
X38134Y-35777D01*
X38134Y-35815D01*
X36666Y-35815D01*
X36666Y-35777D01*
X36603Y-35777D01*
X36666Y-35715D01*
X36666Y-35680D01*
X36665Y-35581D01*
X36627Y-35489D01*
X36557Y-35418D01*
X36465Y-35380D01*
X36331Y-35381D01*
X36269Y-35443D01*
X36269Y-35503D01*
X36267Y-35502D01*
X36169Y-35601D01*
X36169Y-35460D01*
X36197Y-35432D01*
X36172Y-35339D01*
X35975Y-35270D01*
X35767Y-35281D01*
X35627Y-35339D01*
X35602Y-35432D01*
X35772Y-35601D01*
X35771Y-35680D01*
X35772Y-35715D01*
X35834Y-35777D01*
X35807Y-35777D01*
X35563Y-35534D01*
X35560Y-35527D01*
X35555Y-35525D01*
X35532Y-35502D01*
X35500Y-35511D01*
X35467Y-35502D01*
X35444Y-35525D01*
X35439Y-35527D01*
X35437Y-35533D01*
X35192Y-35777D01*
X35165Y-35777D01*
X35228Y-35715D01*
X35228Y-35680D01*
X35227Y-35601D01*
X35397Y-35432D01*
X35372Y-35339D01*
X35175Y-35270D01*
X34967Y-35281D01*
X34827Y-35339D01*
X34802Y-35432D01*
X34831Y-35460D01*
X34831Y-35601D01*
X34732Y-35502D01*
X34731Y-35503D01*
X34731Y-35443D01*
X34668Y-35381D01*
X34534Y-35380D01*
X34442Y-35418D01*
X34372Y-35489D01*
X34334Y-35581D01*
X34333Y-35680D01*
X34334Y-35715D01*
X34396Y-35777D01*
X34334Y-35777D01*
X34334Y-35815D01*
X32866Y-35815D01*
X32866Y-35777D01*
X32803Y-35777D01*
X32866Y-35715D01*
X32866Y-35680D01*
X32865Y-35581D01*
X32827Y-35489D01*
X32757Y-35418D01*
X32665Y-35380D01*
X32531Y-35381D01*
X32469Y-35443D01*
X32469Y-35503D01*
X32467Y-35502D01*
X32369Y-35601D01*
X32369Y-35460D01*
X32397Y-35432D01*
X32372Y-35339D01*
X32275Y-35305D01*
X32275Y-35287D01*
X32212Y-35225D01*
X31800Y-35225D01*
X31800Y-35232D01*
X31700Y-35232D01*
X31700Y-35225D01*
X31287Y-35225D01*
X31234Y-35277D01*
X31167Y-35281D01*
X31027Y-35339D01*
X31002Y-35432D01*
X31031Y-35460D01*
X31031Y-35601D01*
X30932Y-35502D01*
X30931Y-35503D01*
X30931Y-35443D01*
X30868Y-35381D01*
X30734Y-35380D01*
X30642Y-35418D01*
X30572Y-35489D01*
X30534Y-35581D01*
X30533Y-35680D01*
X30534Y-35715D01*
X30596Y-35777D01*
X30534Y-35777D01*
X30534Y-35815D01*
X29066Y-35815D01*
X29066Y-35777D01*
X29003Y-35777D01*
X29066Y-35715D01*
X29066Y-35680D01*
X29065Y-35581D01*
X29027Y-35489D01*
X28957Y-35418D01*
X28865Y-35380D01*
X28731Y-35381D01*
X28669Y-35443D01*
X28669Y-35503D01*
X28667Y-35502D01*
X28569Y-35601D01*
X28569Y-35460D01*
X28597Y-35432D01*
X28572Y-35339D01*
X28475Y-35305D01*
X28475Y-35287D01*
X28412Y-35225D01*
X28000Y-35225D01*
X28000Y-35232D01*
X27900Y-35232D01*
X27900Y-35225D01*
X27487Y-35225D01*
X27434Y-35277D01*
X27367Y-35281D01*
X27227Y-35339D01*
X27202Y-35432D01*
X27231Y-35460D01*
X27231Y-35601D01*
X27132Y-35502D01*
X27131Y-35503D01*
X27131Y-35443D01*
X27068Y-35381D01*
X26934Y-35380D01*
X26842Y-35418D01*
X26772Y-35489D01*
X26734Y-35581D01*
X26733Y-35680D01*
X26734Y-35715D01*
X26796Y-35777D01*
X26734Y-35777D01*
X26734Y-35815D01*
X25266Y-35815D01*
X25266Y-35777D01*
X25203Y-35777D01*
X25266Y-35715D01*
X25266Y-35680D01*
X25265Y-35581D01*
X25227Y-35489D01*
X25157Y-35418D01*
X25065Y-35380D01*
X24931Y-35381D01*
X24869Y-35443D01*
X24869Y-35503D01*
X24867Y-35502D01*
X24769Y-35601D01*
X24769Y-35460D01*
X24797Y-35432D01*
X24772Y-35339D01*
X24725Y-35322D01*
X24725Y-35287D01*
X24662Y-35225D01*
X24250Y-35225D01*
X24250Y-35232D01*
X24150Y-35232D01*
X24150Y-35225D01*
X23737Y-35225D01*
X23687Y-35274D01*
X23567Y-35281D01*
X23427Y-35339D01*
X23402Y-35432D01*
X23431Y-35460D01*
X23431Y-35601D01*
X23332Y-35502D01*
X23331Y-35503D01*
X23331Y-35443D01*
X23268Y-35381D01*
X23134Y-35380D01*
X23042Y-35418D01*
X22972Y-35489D01*
X22934Y-35581D01*
X22933Y-35680D01*
X22934Y-35715D01*
X22996Y-35777D01*
X22934Y-35777D01*
X22934Y-35815D01*
X21466Y-35815D01*
X21466Y-35777D01*
X21403Y-35777D01*
X21466Y-35715D01*
X21466Y-35680D01*
X21465Y-35581D01*
X21427Y-35489D01*
X21357Y-35418D01*
X21265Y-35380D01*
X21131Y-35381D01*
X21069Y-35443D01*
X21069Y-35503D01*
X21067Y-35502D01*
X20969Y-35601D01*
X20969Y-35460D01*
X20997Y-35432D01*
X20972Y-35339D01*
X20875Y-35305D01*
X20875Y-35237D01*
X20812Y-35175D01*
X20400Y-35175D01*
X20400Y-35182D01*
X20384Y-35182D01*
X20384Y-35067D01*
X20400Y-35067D01*
X20400Y-35075D01*
X20812Y-35075D01*
X20875Y-35012D01*
X20875Y-34934D01*
X20894Y-34934D01*
X21288Y-34934D01*
X21422Y-34878D01*
X21514Y-34786D01*
X22885Y-34786D01*
X22976Y-34878D01*
X23111Y-34933D01*
X23256Y-34934D01*
X23650Y-34934D01*
X23688Y-34918D01*
X23674Y-34950D01*
X23675Y-35062D01*
X23737Y-35125D01*
X24150Y-35125D01*
X24150Y-35117D01*
X24250Y-35117D01*
X24250Y-35125D01*
X24662Y-35125D01*
X24725Y-35062D01*
X24725Y-34950D01*
X24718Y-34934D01*
X25088Y-34934D01*
X25222Y-34878D01*
X25314Y-34786D01*
X26685Y-34786D01*
X26776Y-34878D01*
X26911Y-34933D01*
X27056Y-34934D01*
X27431Y-34934D01*
X27424Y-34950D01*
X27425Y-35062D01*
X27487Y-35125D01*
X27900Y-35125D01*
X27900Y-35117D01*
X28000Y-35117D01*
X28000Y-35125D01*
X28412Y-35125D01*
X28475Y-35062D01*
X28475Y-34950D01*
X28468Y-34934D01*
X28494Y-34934D01*
X28888Y-34934D01*
X29022Y-34878D01*
X29114Y-34786D01*
X30485Y-34786D01*
X30576Y-34878D01*
X30711Y-34933D01*
X30856Y-34934D01*
X31231Y-34934D01*
X31224Y-34950D01*
X31225Y-35062D01*
X31287Y-35125D01*
X31700Y-35125D01*
X31700Y-35117D01*
X31800Y-35117D01*
X31800Y-35125D01*
X32212Y-35125D01*
X32275Y-35062D01*
X32275Y-34950D01*
X32268Y-34934D01*
X32294Y-34934D01*
X32688Y-34934D01*
X32822Y-34878D01*
X32914Y-34786D01*
X34285Y-34786D01*
X34376Y-34878D01*
X34511Y-34933D01*
X34656Y-34934D01*
X35050Y-34934D01*
X35184Y-34878D01*
X35287Y-34776D01*
X35342Y-34641D01*
X35343Y-34496D01*
X35343Y-34392D01*
X35462Y-34342D01*
X35499Y-34305D01*
X35537Y-34342D01*
X35656Y-34392D01*
X35656Y-34641D01*
X35712Y-34775D01*
X35814Y-34878D01*
X35949Y-34933D01*
X36094Y-34934D01*
X36488Y-34934D01*
X36622Y-34878D01*
X36725Y-34776D01*
X36780Y-34641D01*
X36781Y-34496D01*
X36781Y-34102D01*
X36725Y-33968D01*
X36623Y-33865D01*
X36539Y-33831D01*
X36540Y-33673D01*
X36442Y-33437D01*
X36314Y-33309D01*
X36314Y-32850D01*
X36314Y-32849D01*
X36314Y-32849D01*
X36308Y-32818D01*
X36283Y-32691D01*
X36283Y-32691D01*
X36193Y-32556D01*
X36193Y-32556D01*
X35964Y-32327D01*
X37050Y-32327D01*
X37213Y-32295D01*
X37352Y-32202D01*
X37752Y-31802D01*
X37752Y-31802D01*
X37752Y-31802D01*
X37845Y-31663D01*
X37845Y-31663D01*
X37848Y-31646D01*
X37887Y-31662D01*
X38111Y-31662D01*
X38317Y-31577D01*
X38476Y-31419D01*
X38561Y-31213D01*
X38561Y-30989D01*
X38476Y-30782D01*
X38318Y-30624D01*
X38112Y-30539D01*
X37888Y-30538D01*
X37877Y-30543D01*
X37877Y-29600D01*
X37845Y-29436D01*
X37752Y-29297D01*
X37652Y-29197D01*
X37513Y-29104D01*
X37350Y-29072D01*
X37043Y-29072D01*
X37065Y-29018D01*
X37066Y-28919D01*
X37066Y-28624D01*
X37065Y-28525D01*
X37027Y-28433D01*
X36957Y-28362D01*
X36865Y-28324D01*
X36731Y-28325D01*
X36669Y-28387D01*
X36669Y-28722D01*
X37003Y-28722D01*
X37066Y-28659D01*
X37066Y-28624D01*
X37066Y-28919D01*
X37066Y-28884D01*
X37003Y-28822D01*
X36669Y-28822D01*
X36669Y-28829D01*
X36569Y-28829D01*
X36569Y-28822D01*
X36561Y-28822D01*
X36561Y-28722D01*
X36569Y-28722D01*
X36569Y-28387D01*
X36506Y-28325D01*
X36372Y-28324D01*
X36280Y-28362D01*
X36239Y-28403D01*
X36239Y-24273D01*
X36307Y-24206D01*
X36389Y-24007D01*
X36390Y-23793D01*
X36308Y-23594D01*
X36156Y-23442D01*
X35957Y-23360D01*
X35743Y-23359D01*
X35544Y-23441D01*
X35392Y-23593D01*
X35310Y-23792D01*
X35309Y-24006D01*
X35391Y-24205D01*
X35410Y-24223D01*
X35410Y-29149D01*
X35408Y-29144D01*
X35364Y-29101D01*
X35364Y-24400D01*
X35333Y-24241D01*
X35333Y-24241D01*
X35297Y-24187D01*
X35243Y-24106D01*
X35243Y-24106D01*
X34990Y-23853D01*
X34990Y-23793D01*
X34908Y-23594D01*
X34756Y-23442D01*
X34557Y-23360D01*
X34343Y-23359D01*
X34144Y-23441D01*
X33992Y-23593D01*
X33910Y-23792D01*
X33909Y-24006D01*
X33991Y-24205D01*
X34143Y-24357D01*
X34342Y-24439D01*
X34403Y-24439D01*
X34535Y-24571D01*
X34535Y-29101D01*
X34492Y-29143D01*
X34410Y-29342D01*
X34409Y-29535D01*
X33390Y-29535D01*
X33455Y-29508D01*
X33607Y-29356D01*
X33689Y-29157D01*
X33690Y-28943D01*
X33608Y-28744D01*
X33564Y-28701D01*
X33564Y-27800D01*
X33564Y-26900D01*
X33564Y-26899D01*
X33564Y-26899D01*
X33558Y-26868D01*
X33533Y-26741D01*
X33533Y-26741D01*
X33443Y-26606D01*
X33443Y-26606D01*
X32726Y-25889D01*
X32708Y-25844D01*
X32556Y-25692D01*
X32357Y-25610D01*
X32143Y-25609D01*
X31944Y-25691D01*
X31792Y-25843D01*
X31710Y-26042D01*
X31709Y-26256D01*
X31769Y-26400D01*
X31710Y-26542D01*
X31709Y-26756D01*
X31730Y-26806D01*
X31692Y-26843D01*
X31686Y-26857D01*
X31683Y-26841D01*
X31683Y-26841D01*
X31593Y-26706D01*
X31593Y-26706D01*
X31243Y-26356D01*
X31108Y-26266D01*
X31102Y-26265D01*
X31102Y-24550D01*
X31101Y-24412D01*
X31039Y-24350D01*
X30222Y-24350D01*
X30222Y-24688D01*
X30285Y-24750D01*
X30802Y-24750D01*
X30901Y-24750D01*
X30993Y-24712D01*
X31064Y-24642D01*
X31102Y-24550D01*
X31102Y-26265D01*
X30975Y-26240D01*
X30975Y-25650D01*
X30975Y-25138D01*
X30937Y-25046D01*
X30867Y-24976D01*
X30775Y-24938D01*
X30675Y-24937D01*
X30631Y-24937D01*
X30569Y-25000D01*
X30569Y-25344D01*
X30913Y-25344D01*
X30975Y-25281D01*
X30975Y-25138D01*
X30975Y-25650D01*
X30975Y-25506D01*
X30913Y-25444D01*
X30569Y-25444D01*
X30569Y-25788D01*
X30631Y-25850D01*
X30675Y-25851D01*
X30775Y-25850D01*
X30867Y-25812D01*
X30937Y-25742D01*
X30975Y-25650D01*
X30975Y-26240D01*
X30950Y-26235D01*
X30949Y-26235D01*
X30469Y-26235D01*
X30469Y-25788D01*
X30469Y-25444D01*
X30469Y-25344D01*
X30469Y-25000D01*
X30406Y-24937D01*
X30362Y-24937D01*
X30262Y-24938D01*
X30174Y-24974D01*
X30085Y-24938D01*
X29986Y-24937D01*
X29912Y-24937D01*
X29850Y-25000D01*
X29850Y-25344D01*
X30125Y-25344D01*
X30223Y-25344D01*
X30469Y-25344D01*
X30469Y-25444D01*
X30223Y-25444D01*
X30125Y-25444D01*
X29850Y-25444D01*
X29850Y-25788D01*
X29912Y-25850D01*
X29986Y-25851D01*
X30085Y-25850D01*
X30174Y-25814D01*
X30262Y-25850D01*
X30362Y-25851D01*
X30406Y-25850D01*
X30469Y-25788D01*
X30469Y-26235D01*
X29750Y-26235D01*
X29750Y-25788D01*
X29750Y-25444D01*
X29475Y-25444D01*
X29376Y-25444D01*
X29131Y-25444D01*
X29131Y-25788D01*
X29193Y-25850D01*
X29237Y-25851D01*
X29337Y-25850D01*
X29425Y-25814D01*
X29514Y-25850D01*
X29613Y-25851D01*
X29687Y-25850D01*
X29750Y-25788D01*
X29750Y-26235D01*
X29064Y-26235D01*
X29064Y-25379D01*
X29064Y-25379D01*
X29128Y-25336D01*
X29131Y-25336D01*
X29131Y-25344D01*
X29376Y-25344D01*
X29475Y-25344D01*
X29750Y-25344D01*
X29750Y-25000D01*
X29687Y-24937D01*
X29613Y-24937D01*
X29514Y-24938D01*
X29485Y-24950D01*
X29514Y-24800D01*
X29514Y-24750D01*
X29543Y-24750D01*
X30060Y-24750D01*
X30122Y-24688D01*
X30122Y-24350D01*
X30114Y-24350D01*
X30114Y-24250D01*
X30122Y-24250D01*
X30122Y-24242D01*
X30222Y-24242D01*
X30222Y-24250D01*
X31039Y-24250D01*
X31101Y-24187D01*
X31102Y-24049D01*
X31064Y-23957D01*
X30993Y-23887D01*
X30933Y-23862D01*
X31058Y-23810D01*
X31161Y-23707D01*
X31216Y-23573D01*
X31216Y-23446D01*
X31357Y-23306D01*
X31439Y-23107D01*
X31440Y-22893D01*
X31371Y-22727D01*
X33514Y-22727D01*
X33543Y-22757D01*
X33742Y-22839D01*
X33956Y-22840D01*
X34155Y-22758D01*
X34307Y-22606D01*
X34389Y-22407D01*
X34389Y-22365D01*
X34452Y-22302D01*
X34452Y-22302D01*
X34545Y-22163D01*
X34577Y-22000D01*
X34577Y-22000D01*
X34577Y-21964D01*
X34672Y-21965D01*
X35072Y-21965D01*
X35099Y-21953D01*
X35127Y-21964D01*
X35272Y-21965D01*
X35672Y-21965D01*
X35806Y-21909D01*
X35909Y-21807D01*
X35964Y-21672D01*
X35964Y-21618D01*
X36066Y-21660D01*
X36211Y-21660D01*
X37195Y-21660D01*
X37329Y-21605D01*
X37432Y-21502D01*
X37487Y-21368D01*
X37488Y-21223D01*
X37488Y-20550D01*
X37506Y-20557D01*
X37722Y-20558D01*
X37921Y-20475D01*
X37939Y-20458D01*
X37938Y-20580D01*
X37938Y-21367D01*
X37994Y-21501D01*
X38096Y-21604D01*
X38180Y-21639D01*
X38125Y-21620D01*
X37917Y-21631D01*
X37777Y-21689D01*
X37752Y-21782D01*
X38050Y-22079D01*
X38055Y-22073D01*
X38126Y-22144D01*
X38120Y-22150D01*
X38126Y-22155D01*
X38055Y-22226D01*
X38050Y-22220D01*
X37979Y-22291D01*
X37979Y-22150D01*
X37682Y-21852D01*
X37589Y-21877D01*
X37520Y-22074D01*
X37531Y-22282D01*
X37589Y-22422D01*
X37682Y-22447D01*
X37979Y-22150D01*
X37979Y-22291D01*
X37752Y-22517D01*
X37777Y-22610D01*
X37974Y-22679D01*
X38182Y-22668D01*
X38322Y-22610D01*
X38347Y-22517D01*
X38347Y-22517D01*
X38392Y-22563D01*
X38424Y-22531D01*
X38465Y-22631D01*
X38567Y-22734D01*
X38702Y-22789D01*
X38847Y-22790D01*
X39215Y-22790D01*
X39215Y-23361D01*
X39143Y-23186D01*
X38930Y-22973D01*
X38651Y-22857D01*
X38349Y-22857D01*
X38347Y-22858D01*
X38070Y-22972D01*
X37958Y-23085D01*
X37850Y-23085D01*
X37691Y-23116D01*
X37637Y-23152D01*
X37556Y-23206D01*
X37556Y-23206D01*
X37406Y-23356D01*
X37316Y-23491D01*
X37285Y-23650D01*
X37285Y-23650D01*
X37285Y-25051D01*
X37242Y-25093D01*
X37160Y-25292D01*
X37159Y-25506D01*
X37241Y-25705D01*
X37393Y-25857D01*
X37592Y-25939D01*
X37806Y-25940D01*
X37823Y-25933D01*
X37856Y-26013D01*
X38069Y-26226D01*
X38348Y-26342D01*
X38650Y-26342D01*
X38929Y-26227D01*
X39142Y-26014D01*
X39215Y-25839D01*
X39215Y-28324D01*
X39093Y-28325D01*
X39031Y-28387D01*
X39031Y-28722D01*
X39038Y-28722D01*
X39038Y-28822D01*
X39031Y-28822D01*
X39031Y-29156D01*
X39093Y-29219D01*
X39215Y-29219D01*
X39215Y-29666D01*
X39105Y-29665D01*
X38931Y-29665D01*
X38931Y-29156D01*
X38931Y-28822D01*
X38931Y-28722D01*
X38931Y-28387D01*
X38868Y-28325D01*
X38734Y-28324D01*
X38642Y-28362D01*
X38572Y-28433D01*
X38561Y-28457D01*
X38561Y-27847D01*
X38476Y-27641D01*
X38318Y-27483D01*
X38112Y-27397D01*
X37888Y-27397D01*
X37682Y-27482D01*
X37523Y-27640D01*
X37438Y-27846D01*
X37438Y-28070D01*
X37523Y-28276D01*
X37681Y-28435D01*
X37887Y-28520D01*
X38111Y-28520D01*
X38317Y-28435D01*
X38476Y-28277D01*
X38561Y-28071D01*
X38561Y-27847D01*
X38561Y-28457D01*
X38534Y-28525D01*
X38533Y-28624D01*
X38534Y-28659D01*
X38596Y-28722D01*
X38931Y-28722D01*
X38931Y-28822D01*
X38596Y-28822D01*
X38534Y-28884D01*
X38533Y-28919D01*
X38534Y-29018D01*
X38572Y-29110D01*
X38642Y-29181D01*
X38734Y-29219D01*
X38868Y-29219D01*
X38931Y-29156D01*
X38931Y-29665D01*
X38711Y-29665D01*
X38577Y-29721D01*
X38474Y-29823D01*
X38419Y-29958D01*
X38418Y-30103D01*
X38418Y-30497D01*
X38474Y-30631D01*
X38576Y-30734D01*
X38711Y-30789D01*
X38856Y-30790D01*
X39215Y-30790D01*
X39215Y-33238D01*
X39027Y-33160D01*
X38773Y-33159D01*
X38537Y-33257D01*
X38357Y-33437D01*
X38260Y-33672D01*
X38260Y-33831D01*
X38177Y-33865D01*
X38074Y-33967D01*
X38019Y-34102D01*
X38018Y-34247D01*
X38018Y-34641D01*
X38074Y-34775D01*
X38176Y-34878D01*
X38311Y-34933D01*
X38456Y-34934D01*
X38731Y-34934D01*
X38724Y-34950D01*
X38725Y-35062D01*
X38787Y-35125D01*
X39200Y-35125D01*
X39200Y-35117D01*
X39215Y-35117D01*
X39215Y-35232D01*
M02*
