G04 (created by PCBNEW (2013-07-07 BZR 4022)-stable) date 11/09/2014 22:00:23*
%MOIN*%
G04 Gerber Fmt 3.4, Leading zero omitted, Abs format*
%FSLAX34Y34*%
G01*
G70*
G90*
G04 APERTURE LIST*
%ADD10C,0.000787402*%
%ADD11C,0.00393701*%
%ADD12R,0.0177X0.0787*%
%ADD13R,0.0787X0.0177*%
%ADD14R,0.055X0.055*%
%ADD15C,0.055*%
%ADD16R,0.025X0.05*%
%ADD17R,0.035X0.055*%
%ADD18R,0.055X0.035*%
%ADD19C,0.0393701*%
%ADD20R,0.2165X0.0787*%
%ADD21C,0.0787*%
%ADD22R,0.135827X0.0401575*%
%ADD23R,0.0394X0.0394*%
%ADD24R,0.0453X0.0453*%
%ADD25R,0.0512X0.0453*%
%ADD26R,0.0906X0.0197*%
%ADD27R,0.0984X0.0787*%
%ADD28C,0.0354*%
%ADD29C,0.16*%
%ADD30R,0.04X0.06*%
G04 APERTURE END LIST*
G54D10*
G54D11*
X20000Y-36200D02*
X20000Y-16600D01*
X39600Y-36200D02*
X20000Y-36200D01*
X39600Y-16600D02*
X39600Y-36200D01*
X20000Y-16600D02*
X39600Y-16600D01*
G54D12*
X26393Y-28496D03*
X26078Y-28496D03*
X25763Y-28496D03*
X25448Y-28496D03*
X25133Y-28496D03*
X24818Y-28496D03*
X24503Y-28496D03*
X24188Y-28496D03*
X24190Y-24730D03*
X26400Y-24730D03*
X26080Y-24730D03*
X25760Y-24730D03*
X25450Y-24730D03*
X25130Y-24730D03*
X24820Y-24730D03*
X24500Y-24730D03*
G54D13*
X23400Y-27712D03*
X23400Y-27398D03*
X23400Y-27082D03*
X23400Y-26768D03*
X23400Y-26452D03*
X23400Y-26138D03*
X23400Y-25822D03*
X23400Y-25508D03*
X27180Y-27710D03*
X27180Y-27400D03*
X27180Y-27080D03*
X27180Y-26770D03*
X27180Y-26460D03*
X27180Y-26140D03*
X27180Y-25820D03*
X27180Y-25500D03*
G54D14*
X26300Y-17200D03*
G54D15*
X27300Y-17200D03*
X28300Y-17200D03*
X29300Y-17200D03*
X30300Y-17200D03*
X31300Y-17200D03*
X32300Y-17200D03*
X33300Y-17200D03*
X23700Y-33800D03*
X23700Y-35800D03*
X20700Y-33800D03*
X20700Y-35800D03*
X27500Y-33800D03*
X27500Y-35800D03*
X24500Y-33800D03*
X24500Y-35800D03*
X31300Y-33800D03*
X31300Y-35800D03*
X28300Y-33800D03*
X28300Y-35800D03*
X35100Y-33800D03*
X35100Y-35800D03*
X32100Y-33800D03*
X32100Y-35800D03*
X38900Y-33800D03*
X38900Y-35800D03*
X35900Y-33800D03*
X35900Y-35800D03*
G54D14*
X33300Y-18000D03*
G54D15*
X32300Y-18000D03*
X31300Y-18000D03*
X30300Y-18000D03*
X29300Y-18000D03*
X28300Y-18000D03*
X27300Y-18000D03*
X26300Y-18000D03*
G54D14*
X20600Y-23900D03*
G54D15*
X20600Y-24900D03*
X20600Y-25900D03*
X20600Y-26900D03*
X20600Y-27900D03*
X20600Y-28900D03*
G54D14*
X20600Y-18300D03*
G54D15*
X21600Y-18300D03*
X22600Y-18300D03*
G54D14*
X20600Y-21300D03*
G54D15*
X21600Y-21300D03*
X22600Y-21300D03*
G54D14*
X20600Y-20300D03*
G54D15*
X21600Y-20300D03*
X22600Y-20300D03*
G54D14*
X20600Y-19300D03*
G54D15*
X21600Y-19300D03*
X22600Y-19300D03*
G54D14*
X20600Y-17300D03*
G54D15*
X21600Y-17300D03*
X22600Y-17300D03*
G54D16*
X26450Y-21000D03*
X26950Y-21000D03*
X27450Y-21000D03*
X27950Y-21000D03*
X28450Y-21000D03*
X28950Y-21000D03*
X29450Y-21000D03*
X29950Y-21000D03*
X29950Y-18800D03*
X29450Y-18800D03*
X28950Y-18800D03*
X28450Y-18800D03*
X27950Y-18800D03*
X27450Y-18800D03*
X26950Y-18800D03*
X26450Y-18800D03*
G54D17*
X35825Y-31000D03*
X36575Y-31000D03*
X25125Y-30100D03*
X25875Y-30100D03*
X27325Y-30100D03*
X26575Y-30100D03*
G54D18*
X25300Y-23875D03*
X25300Y-23125D03*
X21700Y-27525D03*
X21700Y-28275D03*
G54D19*
X38000Y-27959D03*
X38000Y-31100D03*
G54D20*
X28100Y-31450D03*
X24400Y-31450D03*
G54D14*
X20600Y-22300D03*
G54D15*
X21600Y-22300D03*
X22600Y-22300D03*
X23600Y-22300D03*
G54D17*
X25575Y-19150D03*
X24825Y-19150D03*
G54D21*
X38500Y-25584D03*
X38500Y-24600D03*
X38500Y-23616D03*
G54D22*
X30172Y-24300D03*
X28027Y-24300D03*
X28027Y-22300D03*
X30172Y-22300D03*
X28027Y-23300D03*
X30172Y-23300D03*
G54D18*
X29000Y-28575D03*
X29000Y-27825D03*
X29800Y-28575D03*
X29800Y-27825D03*
X30600Y-28575D03*
X30600Y-27825D03*
G54D23*
X36619Y-28772D03*
X38981Y-30228D03*
X36619Y-30228D03*
X38981Y-28772D03*
X21019Y-34372D03*
X23381Y-35828D03*
X21019Y-35828D03*
X23381Y-34372D03*
X24819Y-34372D03*
X27181Y-35828D03*
X24819Y-35828D03*
X27181Y-34372D03*
X28619Y-34372D03*
X30981Y-35828D03*
X28619Y-35828D03*
X30981Y-34372D03*
X32419Y-34372D03*
X34781Y-35828D03*
X32419Y-35828D03*
X34781Y-34372D03*
X36219Y-34372D03*
X38581Y-35828D03*
X36219Y-35828D03*
X38581Y-34372D03*
G54D14*
X39050Y-22150D03*
G54D15*
X38050Y-22150D03*
G54D24*
X29081Y-25394D03*
G54D25*
X29800Y-25394D03*
G54D24*
X30519Y-25394D03*
X30519Y-27205D03*
G54D25*
X29800Y-27205D03*
G54D24*
X29081Y-27205D03*
G54D18*
X20350Y-34375D03*
X20350Y-35125D03*
X24200Y-34425D03*
X24200Y-35175D03*
X27950Y-34425D03*
X27950Y-35175D03*
X31750Y-34425D03*
X31750Y-35175D03*
X39250Y-34425D03*
X39250Y-35175D03*
G54D26*
X36592Y-19780D03*
X36592Y-19465D03*
X36592Y-19150D03*
X36592Y-18835D03*
X36592Y-18520D03*
G54D27*
X36631Y-20902D03*
X38796Y-20902D03*
X36631Y-17398D03*
X38796Y-17398D03*
G54D28*
X37615Y-20016D03*
X37615Y-18284D03*
G54D29*
X21100Y-32000D03*
X24700Y-17700D03*
X32500Y-32000D03*
G54D30*
X35400Y-21300D03*
X34800Y-21300D03*
X33600Y-21300D03*
X33000Y-21300D03*
M02*
