G04 (created by PCBNEW (2013-07-07 BZR 4022)-stable) date 11/09/2014 22:00:23*
%MOIN*%
G04 Gerber Fmt 3.4, Leading zero omitted, Abs format*
%FSLAX34Y34*%
G01*
G70*
G90*
G04 APERTURE LIST*
%ADD10C,0.000787402*%
%ADD11C,0.00393701*%
%ADD12R,0.055X0.055*%
%ADD13C,0.055*%
%ADD14R,0.063X0.0276*%
%ADD15R,0.0827X0.0276*%
%ADD16R,0.1083X0.0787*%
%ADD17R,0.0276X0.063*%
%ADD18R,0.0276X0.0827*%
%ADD19R,0.0787X0.1083*%
%ADD20R,0.0629921X0.0275591*%
%ADD21R,0.0866142X0.0472441*%
%ADD22R,0.0551181X0.0433071*%
%ADD23R,0.0551181X0.0629921*%
%ADD24C,0.0393701*%
%ADD25C,0.0787*%
%ADD26R,0.0866X0.0709*%
%ADD27R,0.063X0.1575*%
%ADD28R,0.063X0.1417*%
%ADD29R,0.0866X0.248*%
%ADD30C,0.0354*%
%ADD31R,0.055X0.035*%
%ADD32C,0.16*%
G04 APERTURE END LIST*
G54D10*
G54D11*
X20000Y-36200D02*
X20000Y-16600D01*
X39600Y-36200D02*
X20000Y-36200D01*
X39600Y-16600D02*
X39600Y-36200D01*
X20000Y-16600D02*
X39600Y-16600D01*
G54D12*
X26300Y-17200D03*
G54D13*
X27300Y-17200D03*
X28300Y-17200D03*
X29300Y-17200D03*
X30300Y-17200D03*
X31300Y-17200D03*
X32300Y-17200D03*
X33300Y-17200D03*
X23700Y-33800D03*
X23700Y-35800D03*
X20700Y-33800D03*
X20700Y-35800D03*
X27500Y-33800D03*
X27500Y-35800D03*
X24500Y-33800D03*
X24500Y-35800D03*
X31300Y-33800D03*
X31300Y-35800D03*
X28300Y-33800D03*
X28300Y-35800D03*
X35100Y-33800D03*
X35100Y-35800D03*
X32100Y-33800D03*
X32100Y-35800D03*
X38900Y-33800D03*
X38900Y-35800D03*
X35900Y-33800D03*
X35900Y-35800D03*
G54D14*
X35952Y-21491D03*
G54D15*
X36050Y-20900D03*
G54D14*
X35952Y-20309D03*
G54D16*
X36995Y-20900D03*
G54D12*
X33300Y-18000D03*
G54D13*
X32300Y-18000D03*
X31300Y-18000D03*
X30300Y-18000D03*
X29300Y-18000D03*
X28300Y-18000D03*
X27300Y-18000D03*
X26300Y-18000D03*
G54D12*
X20600Y-23900D03*
G54D13*
X20600Y-24900D03*
X20600Y-25900D03*
X20600Y-26900D03*
X20600Y-27900D03*
X20600Y-28900D03*
G54D12*
X20600Y-18300D03*
G54D13*
X21600Y-18300D03*
X22600Y-18300D03*
G54D12*
X20600Y-21300D03*
G54D13*
X21600Y-21300D03*
X22600Y-21300D03*
G54D12*
X20600Y-20300D03*
G54D13*
X21600Y-20300D03*
X22600Y-20300D03*
G54D12*
X20600Y-19300D03*
G54D13*
X21600Y-19300D03*
X22600Y-19300D03*
G54D12*
X20600Y-17300D03*
G54D13*
X21600Y-17300D03*
X22600Y-17300D03*
G54D17*
X32259Y-20352D03*
G54D18*
X32850Y-20450D03*
G54D17*
X33441Y-20352D03*
G54D19*
X32850Y-21395D03*
G54D20*
X33866Y-29900D03*
X33866Y-30333D03*
X33866Y-30766D03*
X33866Y-29466D03*
X33866Y-29033D03*
X33866Y-28600D03*
X33866Y-28167D03*
X33866Y-27734D03*
X33866Y-27301D03*
G54D21*
X37842Y-26848D03*
X37842Y-32951D03*
G54D22*
X34181Y-26809D03*
G54D23*
X34062Y-32596D03*
G54D24*
X38000Y-27959D03*
X38000Y-31100D03*
G54D12*
X20600Y-22300D03*
G54D13*
X21600Y-22300D03*
X22600Y-22300D03*
X23600Y-22300D03*
G54D25*
X38500Y-25584D03*
X38500Y-24600D03*
X38500Y-23616D03*
G54D26*
X34650Y-20310D03*
X34650Y-21890D03*
G54D12*
X39050Y-22150D03*
G54D13*
X38050Y-22150D03*
G54D27*
X36000Y-22999D03*
X36000Y-25401D03*
G54D28*
X32900Y-23017D03*
X32900Y-25183D03*
X38250Y-19633D03*
X38250Y-17467D03*
G54D29*
X36207Y-18250D03*
X34593Y-18250D03*
G54D30*
X37615Y-20016D03*
X37615Y-18284D03*
G54D31*
X24500Y-26275D03*
X24500Y-27025D03*
G54D32*
X21100Y-32000D03*
X24700Y-17700D03*
X32500Y-32000D03*
M02*
