M48
;DRILL file {Pcbnew (2013-07-07 BZR 4022)-stable} date 11/09/2014 18:56:53
;FORMAT={3:3/ absolute / metric / suppress leading zeros}
FMAT,2
METRIC,TZ
T1C0.635
T2C0.813
T3C0.998
T4C3.048
T5C0.899
T6C1.000
%
G90
G05
M71
T1
X54229Y-68707
X54483Y-61849
X56261Y-68834
X57912Y-74676
X58674Y-47752
X58674Y-60325
X58801Y-77470
X58928Y-61849
X59182Y-63373
X60071Y-61976
X60452Y-72390
X61849Y-59817
X62738Y-58801
X62865Y-56515
X62865Y-65151
X62992Y-74803
X63627Y-69723
X63754Y-57785
X63881Y-50038
X63881Y-54229
X63881Y-66040
X64262Y-74422
X64770Y-67056
X64770Y-68961
X65278Y-50927
X66167Y-54483
X66675Y-59563
X66802Y-49403
X66929Y-68326
X67056Y-70358
X67056Y-74803
X67183Y-65151
X67183Y-67183
X67437Y-57023
X68326Y-58166
X68580Y-51816
X68580Y-56134
X68707Y-64135
X68834Y-50038
X68961Y-73533
X69723Y-54610
X70612Y-50292
X71120Y-51816
X71120Y-55118
X71247Y-64262
X71247Y-65659
X73533Y-48895
X73660Y-51816
X74930Y-59944
X76073Y-55118
X77216Y-47752
X77724Y-74041
X77724Y-77216
X78486Y-48641
X78486Y-58420
X79502Y-49276
X80518Y-72898
X81661Y-68961
X81661Y-77216
X81788Y-74803
X81915Y-50419
X81915Y-66421
X81915Y-67691
X82550Y-55753
X82804Y-61976
X83185Y-74549
X83312Y-47498
X84201Y-73787
X85979Y-56642
X87503Y-60706
X88773Y-74803
X90551Y-49784
X91059Y-60706
X92456Y-55118
X92964Y-71247
X93091Y-66929
X93853Y-51308
X95758Y-64516
X98933Y-46228
T2
X52324Y-43942
X52324Y-46482
X52324Y-49022
X52324Y-51562
X52324Y-54102
X52324Y-56642
X52324Y-60706
X52324Y-63246
X52324Y-65786
X52324Y-68326
X52324Y-70866
X52324Y-73406
X52578Y-85852
X52578Y-90932
X54864Y-43942
X54864Y-46482
X54864Y-49022
X54864Y-51562
X54864Y-54102
X54864Y-56642
X57404Y-43942
X57404Y-46482
X57404Y-49022
X57404Y-51562
X57404Y-54102
X57404Y-56642
X59944Y-56642
X60198Y-85852
X60198Y-90932
X62230Y-85852
X62230Y-90932
X66802Y-43688
X66802Y-45720
X69342Y-43688
X69342Y-45720
X69850Y-85852
X69850Y-90932
X71882Y-43688
X71882Y-45720
X71882Y-85852
X71882Y-90932
X74422Y-43688
X74422Y-45720
X76962Y-43688
X76962Y-45720
X79502Y-43688
X79502Y-45720
X79502Y-85852
X79502Y-90932
X81534Y-85852
X81534Y-90932
X82042Y-43688
X82042Y-45720
X84582Y-43688
X84582Y-45720
X89154Y-85852
X89154Y-90932
X91186Y-85852
X91186Y-90932
X96647Y-56261
X98806Y-85852
X98806Y-90932
X99187Y-56261
T3
X97790Y-59985
X97790Y-62484
X97790Y-64983
T4
X53594Y-81280
X62738Y-44958
X82550Y-81280
T5
X95542Y-46441
X95542Y-50841
T6
X96520Y-71016
X96520Y-78996
T0
M30
